<svg xmlns="http://www.w3.org/2000/svg" viewBox="0 0 247.97876 247.97875" width="247.979" height="247.979"><g fill="#705683"><path d="M30.912 212.98c-2.043.682-4.314.91-6.584.91-8.4 0-12.486-4.088-12.486-12.487 0-7.72 4.087-11.805 12.486-11.805 2.27 0 4.54.227 6.584.908v2.724c-2.043-.68-4.086-1.135-6.357-1.135-6.583 0-9.76 3.178-9.76 9.308 0 6.583 3.177 9.988 9.76 9.988 2.27 0 4.314-.453 6.357-1.134v2.725zM35.225 202.084c0-7.946 4.087-12.032 12.032-12.032 7.946 0 11.805 4.086 11.805 12.032 0 7.945-3.86 12.032-11.805 12.032-8.172 0-12.032-4.087-12.032-12.032zm11.805 9.534c5.676 0 8.627-3.178 8.627-9.534 0-6.357-2.724-9.535-8.627-9.535-5.902 0-8.627 3.177-8.627 9.534 0 6.356 2.952 9.534 8.627 9.534zM63.602 213.89V190.05h8.627c7.945 0 11.804 3.86 11.804 11.35 0 8.4-3.86 12.487-11.805 12.487H63.6zm8.854-2.5c5.903 0 8.627-3.404 8.627-9.987 0-5.903-2.95-8.854-8.627-8.854H66.78v18.84h5.676zM104.24 190.052v2.497H91.752v7.945h11.805v2.497H91.753v8.4h12.713v2.497h-15.89V190.05h15.663z"/><g><path d="M57.02 104.693l9.08 7.037 55.846-44.722v45.857h11.124V67.008l55.62 44.722 9.307-7.037-70.375-56.528"/><path d="M42.49 103.33l77.64-61.294-10.216-8.173-87.856 69.468 88.537 70.15 10.216-7.946"/></g></g><g fill="#705683"><path d="M109.006 213.89V190.05h3.86l8.626 19.75 8.627-19.75h3.63v23.837h-2.723v-19.525l-8.4 19.524h-2.497l-8.627-19.525v19.524h-2.497zM143.286 190.052v23.837h-3.178V190.05h3.178zM149.415 213.89V190.05h3.18l14.528 19.07v-19.07h2.95v23.837h-3.177l-14.53-19.298v19.297h-2.95zM191.187 190.052v2.497H178.7v7.945h11.806v2.497H178.7v8.4h12.714v2.497h-15.89V190.05h15.663zM196.18 213.89V190.05h10.217c4.54 0 6.81 1.816 6.81 5.675 0 3.178-2.27 5.45-6.583 6.81l8.173 11.125h-4.087l-7.49-10.67v-1.816c4.54-.68 6.81-2.498 6.81-5.222 0-2.27-1.363-3.405-3.86-3.405h-6.81v21.34h-3.18zM215.25 190.052h3.406l6.81 12.486 7.038-12.486h3.632l-9.08 15.437v8.4h-3.18v-8.4l-8.625-15.438zM213.89 103.33l-77.642-61.294 10.216-8.173 87.856 69.468-88.537 70.15-10.216-7.946"/></g><path fill="#c41f17" d="M127.622 120.357h-18.616l-9.535 7.72 9.31 7.717 18.842 15.438 18.615-15.438 9.308-7.718-9.535-7.72"/><path fill="none" fill-rule="evenodd" d="M0 0h247.98v247.98H0z"/></svg>