<svg xmlns="http://www.w3.org/2000/svg" viewBox="0 0 459 308.6"><path d="M-1058.6-79h800v420h-800z"/><g fill="#FFF"><path d="M-587.8 242.8c-.9-2.1-2.2-3.9-3.7-5.5-3.3-3.4-7.8-5.5-12.9-5.5-5 0-9.6 2.1-12.9 5.5-3.3 3.4-5.3 8-5.3 13.1s2.1 9.7 5.3 13.1c3.3 3.4 7.8 5.5 12.9 5.5 5 0 9.6-2.1 12.9-5.5 1.5-1.6 2.8-3.3 3.7-5.4h.9c-.9 2.3-2.3 4.3-4 6.1-3.5 3.6-8.2 5.7-13.5 5.7-5.3 0-10-2.2-13.5-5.7-3.4-3.5-5.6-8.4-5.6-13.8 0-5.3 2.2-10.2 5.6-13.7 3.5-3.6 8.2-5.7 13.5-5.7 5.3 0 10 2.2 13.5 5.7 1.7 1.7 3.1 3.8 4 6.1h-.9z"/><path d="M-604.3 271.1c-5.4 0-10.5-2.2-14.4-6.1-3.8-3.9-5.9-9.1-5.9-14.6 0-5.4 2.1-10.6 5.9-14.6 3.8-3.9 8.9-6.1 14.4-6.1 5.4 0 10.5 2.2 14.4 6.1 1.8 1.9 3.3 4.1 4.3 6.5l.7 1.7h-3.6l-.3-.8c-.8-1.8-2-3.6-3.4-5.1-3.2-3.3-7.4-5.1-12-5.1s-8.8 1.8-12 5.1c-3.2 3.3-5 7.7-5 12.2 0 4.6 1.8 8.9 5 12.2 3.2 3.3 7.5 5.1 12 5.1s8.8-1.8 12-5.1c1.5-1.6 2.7-3.3 3.4-5l.3-.8h3.6l-.7 1.7c-1 2.4-2.4 4.6-4.3 6.5-3.8 4.1-8.9 6.2-14.4 6.2zM-573.8 236.2c3.6-3.7 8.6-5.9 14-5.9 5.5 0 10.5 2.2 14.1 5.9 3.6 3.6 5.8 8.6 5.8 14.1s-2.3 10.5-5.8 14.1c-3.6 3.7-8.6 5.9-14.1 5.9s-10.5-2.2-14-5.9c-3.6-3.6-5.8-8.6-5.8-14.1-.1-5.5 2.2-10.5 5.8-14.1zm27.5.7c-3.5-3.5-8.2-5.7-13.5-5.7-5.2 0-10 2.2-13.4 5.7-3.4 3.5-5.6 8.2-5.6 13.5s2.2 10 5.6 13.5c3.5 3.5 8.2 5.7 13.4 5.7 5.2 0 10-2.2 13.5-5.7 3.4-3.4 5.5-8.2 5.5-13.5s-2.1-10.1-5.5-13.5z"/><path d="M-559.8 271.6c-5.6 0-11.1-2.3-14.9-6.3-4-4.1-6.2-9.4-6.2-15s2.2-11 6.2-15c3.9-4 9.3-6.3 14.9-6.3 5.7 0 11 2.2 15 6.3s6.2 9.4 6.2 15-2.2 11-6.2 15c-4 4.1-9.3 6.3-15 6.3zm0-39.2c-4.7 0-9.2 1.9-12.5 5.3-3.4 3.4-5.2 7.9-5.2 12.6 0 4.7 1.8 9.2 5.2 12.6 3.4 3.4 7.8 5.3 12.5 5.3s9.2-1.9 12.6-5.3c3.3-3.4 5.2-7.8 5.2-12.6 0-4.7-1.8-9.2-5.2-12.6-3.4-3.4-7.9-5.3-12.6-5.3z"/><g><path d="M-518.5 230.9c25.5 0 25.5 38.9 0 38.9h-13.1v-38.9h13.1zm0 38.1c24.4 0 24.4-37.2 0-37.2h-12.3V269h12.3z"/><path d="M-518.5 271.1h-14.4v-41.4h14.4c6.3 0 11.6 2.2 15.3 6.5 3.3 3.8 5.1 8.8 5.1 14.2 0 5.4-1.8 10.4-5.1 14.2-3.7 4.2-9 6.5-15.3 6.5zm-11.1-3.4h11c5.3 0 9.7-1.9 12.8-5.4 2.8-3.1 4.3-7.4 4.3-12 0-8.4-5.3-17.4-17.1-17.4h-11v34.8z"/></g><g><path d="M-490 269h20.7v.8h-21.6v-38.9h21.5v.8H-490v18.1h20.1v.9H-490V269z"/><path d="M-468 271.1h-24.1v-41.4h23.9v3.3h-20.5v15.6h20.1v3.4h-20.1v15.7h20.7"/></g><g><path d="M-844.5 230.9v38.9h-5.6v-38.9h5.6zm1.1 18l13.6-18h7.1l-14.9 19.3 16.4 19.6h-7.3l-14.9-18v-2.9zM-810.4 250.1h6.6c4.7 0 7.1-3.4 7.1-6.8 0-3.3-2.3-6.7-7.1-6.7h-8.6v33.3h-5.6v-39h14.2c8.5 0 12.7 6.2 12.7 12.4 0 5.5-3.4 10.7-10.1 11.9l12.3 14.6h-7.3l-14.2-17.1v-2.6zM-781.2 236.3c3.6-3.6 8.6-5.9 14-5.9 5.5 0 10.5 2.3 14.1 5.9 3.5 3.6 5.8 8.6 5.8 14.1s-2.3 10.5-5.8 14.1c-3.6 3.7-8.6 5.9-14.1 5.9s-10.5-2.2-14-5.9c-3.5-3.6-5.8-8.6-5.8-14.1 0-5.6 2.3-10.5 5.8-14.1zm24.1 4c-2.6-2.6-6.2-4.2-10.1-4.2-3.8 0-7.4 1.6-10 4.2-2.6 2.6-4.2 6.1-4.2 10.1s1.6 7.5 4.2 10.1c2.6 2.6 6.1 4.2 10 4.2 3.8 0 7.5-1.6 10.1-4.2 2.5-2.6 4.1-6.1 4.1-10.1 0-4.1-1.6-7.6-4.1-10.1zM-741 269.8v-39l4.3.1 19 27.4v-27.4h5.6v39h-4.5l-18.8-27.2v27.2h-5.6zM-700.7 236.3c3.6-3.6 8.6-5.9 14-5.9 5.5 0 10.5 2.3 14.1 5.9 3.5 3.6 5.8 8.6 5.8 14.1s-2.3 10.5-5.8 14.1c-3.6 3.7-8.6 5.9-14.1 5.9s-10.5-2.2-14-5.9c-3.5-3.6-5.8-8.6-5.8-14.1 0-5.6 2.3-10.5 5.8-14.1zm24.1 4c-2.6-2.6-6.2-4.2-10.1-4.2-3.8 0-7.4 1.6-10 4.2-2.6 2.6-4.2 6.1-4.2 10.1s1.6 7.5 4.2 10.1c2.6 2.6 6.1 4.2 10 4.2 3.8 0 7.5-1.6 10.1-4.2 2.5-2.6 4.1-6.1 4.1-10.1 0-4.1-1.6-7.6-4.1-10.1zM-639.2 240.9c-.8-3.5-4.6-5-8-5-2.6.1-5.5.9-7.1 2.9-.8 1-1.1 2.3-.9 3.6.3 4 4.7 4.5 8.8 4.9 5.3.7 12 2.1 13.5 8.3.2.8.3 1.8.3 2.6 0 7.5-7.5 11.9-14.5 11.9-6 0-13.3-3.6-14-10.5l-.1-1.1 5.7-.1.1.8v-.2c.4 3.6 4.8 5.5 8.4 5.5 4.2 0 8.7-2.3 8.7-6.3 0-.4-.1-.8-.2-1.3-.7-3-4.7-3.5-8.6-3.8-6.1-.6-13.2-1.9-13.8-10.1v.1c-.2-2.6.4-5.2 2.1-7.4 2.6-3.4 7.3-5.2 11.8-5.2 6 0 12.2 3.1 13.2 10.2l-5.4.2z"/></g></g><path fill="#FFF" d="M-611.8 45h-29.7l-58.4 53.2 58.4 55.8h29.7l-58.4-55.8"/><path fill="#FFF" d="M-594.4 170.6c-8.4 5.9-18.6 9.4-29.7 9.4h-64c-28.4 0-51.5-23-51.5-51.4v-64c0-28.4 23.1-51.6 51.5-51.6h64c12.8 0 24.5 4.7 33.6 12.5l9.7-8.8C-592.3 6.3-607.5 0-624.1 0h-64c-35.6 0-64.5 29-64.5 64.6v64c0 35.6 28.9 64.4 64.5 64.4h64c14.7 0 28.3-5 39.2-13.3l-9.5-9.1z"/><g fill="#FFF"><path d="M302.2 250.8c-.9-2.1-2.2-3.9-3.7-5.5-3.3-3.4-7.8-5.5-12.9-5.5s-9.6 2.1-12.9 5.5c-3.3 3.4-5.3 8-5.3 13.1s2.1 9.7 5.3 13.1c3.3 3.4 7.8 5.5 12.9 5.5s9.6-2.1 12.9-5.5c1.5-1.6 2.8-3.3 3.7-5.4h.9c-.9 2.3-2.3 4.3-4 6.1-3.5 3.6-8.2 5.7-13.5 5.7-5.3 0-10-2.2-13.5-5.7-3.4-3.5-5.6-8.4-5.6-13.8 0-5.3 2.2-10.2 5.6-13.7 3.5-3.6 8.2-5.7 13.5-5.7 5.3 0 10 2.2 13.5 5.7 1.7 1.7 3.1 3.8 4 6.1h-.9z"/><path d="M285.7 279.1c-5.4 0-10.5-2.2-14.4-6.1-3.8-3.9-5.9-9.1-5.9-14.6 0-5.4 2.1-10.6 5.9-14.6 3.8-3.9 8.9-6.1 14.4-6.1 5.4 0 10.5 2.2 14.4 6.1 1.8 1.9 3.3 4.1 4.3 6.5l.7 1.7h-3.6l-.3-.8c-.8-1.8-2-3.6-3.4-5.1-3.2-3.3-7.4-5.1-12-5.1s-8.8 1.8-12 5.1c-3.2 3.3-5 7.7-5 12.2 0 4.6 1.8 8.9 5 12.2 3.2 3.3 7.5 5.1 12 5.1s8.8-1.8 12-5.1c1.5-1.6 2.7-3.3 3.4-5l.3-.8h3.6l-.7 1.7c-1 2.4-2.4 4.6-4.3 6.5-3.8 4.1-8.9 6.2-14.4 6.2zM316.2 244.2c3.6-3.7 8.6-5.9 14-5.9 5.5 0 10.5 2.2 14.1 5.9 3.6 3.6 5.8 8.6 5.8 14.1s-2.3 10.5-5.8 14.1c-3.6 3.7-8.6 5.9-14.1 5.9s-10.5-2.2-14-5.9c-3.6-3.6-5.8-8.6-5.8-14.1-.1-5.5 2.2-10.5 5.8-14.1zm27.5.7c-3.5-3.5-8.2-5.7-13.5-5.7-5.2 0-10 2.2-13.4 5.7-3.4 3.5-5.6 8.2-5.6 13.5 0 5.3 2.2 10 5.6 13.5 3.5 3.5 8.2 5.7 13.4 5.7 5.2 0 10-2.2 13.5-5.7 3.4-3.4 5.5-8.2 5.5-13.5 0-5.4-2.1-10.1-5.5-13.5z"/><path d="M330.2 279.6c-5.6 0-11.1-2.3-14.9-6.3-4-4.1-6.2-9.4-6.2-15s2.2-11 6.2-15c3.9-4 9.3-6.3 14.9-6.3 5.7 0 11 2.2 15 6.3s6.2 9.4 6.2 15-2.2 11-6.2 15c-4 4.1-9.3 6.3-15 6.3zm0-39.2c-4.7 0-9.2 1.9-12.5 5.3-3.4 3.4-5.2 7.9-5.2 12.6 0 4.7 1.8 9.2 5.2 12.6 3.4 3.4 7.8 5.3 12.5 5.3s9.2-1.9 12.6-5.3c3.3-3.4 5.2-7.8 5.2-12.6 0-4.7-1.8-9.2-5.2-12.6-3.4-3.4-7.9-5.3-12.6-5.3z"/><g><path d="M371.5 238.9c25.5 0 25.5 38.9 0 38.9h-13.1v-38.9h13.1zm0 38.1c24.4 0 24.4-37.2 0-37.2h-12.3V277h12.3z"/><path d="M371.5 279.1h-14.4v-41.4h14.4c6.3 0 11.6 2.2 15.3 6.5 3.3 3.8 5.1 8.8 5.1 14.2 0 5.4-1.8 10.4-5.1 14.2-3.7 4.2-9 6.5-15.3 6.5zm-11.1-3.4h11c5.3 0 9.7-1.9 12.8-5.4 2.8-3.1 4.3-7.4 4.3-12 0-8.4-5.3-17.4-17.1-17.4h-11v34.8z"/></g><g><path d="M400 277h20.7v.8h-21.6v-38.9h21.5v.8H400v18.1h20.1v.9H400V277z"/><path d="M422 279.1h-24.1v-41.4h23.9v3.3h-20.5v15.6h20.1v3.4h-20.1v15.7H422"/></g><g><path d="M45.5 238.9v38.9H40v-38.9h5.5zm1.1 18l13.6-18h7.1l-14.9 19.3 16.4 19.6h-7.3l-14.9-18v-2.9zM79.6 258.1h6.6c4.7 0 7.1-3.4 7.1-6.8 0-3.3-2.3-6.7-7.1-6.7h-8.6v33.3H72v-39h14.2c8.5 0 12.7 6.2 12.7 12.4 0 5.5-3.4 10.7-10.1 11.9l12.3 14.6h-7.3l-14.2-17.1v-2.6zM108.8 244.3c3.6-3.6 8.6-5.9 14-5.9 5.5 0 10.5 2.3 14.1 5.9 3.5 3.6 5.8 8.6 5.8 14.1s-2.3 10.5-5.8 14.1c-3.6 3.7-8.6 5.9-14.1 5.9s-10.5-2.2-14-5.9c-3.5-3.6-5.8-8.6-5.8-14.1 0-5.6 2.3-10.5 5.8-14.1zm24.1 4c-2.6-2.6-6.2-4.2-10.1-4.2-3.8 0-7.4 1.6-10 4.2-2.6 2.6-4.2 6.1-4.2 10.1s1.6 7.5 4.2 10.1c2.6 2.6 6.1 4.2 10 4.2 3.8 0 7.5-1.6 10.1-4.2 2.5-2.6 4.1-6.1 4.1-10.1 0-4.1-1.6-7.6-4.1-10.1zM149 277.8v-39l4.3.1 19 27.4v-27.4h5.6v39h-4.5l-18.8-27.2v27.2H149zM189.3 244.3c3.6-3.6 8.6-5.9 14-5.9 5.5 0 10.5 2.3 14.1 5.9 3.5 3.6 5.8 8.6 5.8 14.1s-2.3 10.5-5.8 14.1c-3.6 3.7-8.6 5.9-14.1 5.9s-10.5-2.2-14-5.9c-3.5-3.6-5.8-8.6-5.8-14.1 0-5.6 2.3-10.5 5.8-14.1zm24.1 4c-2.6-2.6-6.2-4.2-10.1-4.2-3.8 0-7.4 1.6-10 4.2-2.6 2.6-4.2 6.1-4.2 10.1s1.6 7.5 4.2 10.1c2.6 2.6 6.1 4.2 10 4.2 3.8 0 7.5-1.6 10.1-4.2 2.5-2.6 4.1-6.1 4.1-10.1 0-4.1-1.6-7.6-4.1-10.1zM250.8 248.9c-.8-3.5-4.6-5-8-5-2.6.1-5.5.9-7.1 2.9-.8 1-1.1 2.3-.9 3.6.3 4 4.7 4.5 8.8 4.9 5.3.7 12 2.1 13.5 8.3.2.8.3 1.8.3 2.6 0 7.5-7.5 11.9-14.5 11.9-6 0-13.3-3.6-14-10.5l-.1-1.1 5.7-.1.1.8v-.2c.4 3.6 4.8 5.5 8.4 5.5 4.2 0 8.7-2.3 8.7-6.3 0-.4-.1-.8-.2-1.3-.7-3-4.7-3.5-8.6-3.8-6.1-.6-13.2-1.9-13.8-10.1v.1c-.2-2.6.4-5.2 2.1-7.4 2.6-3.4 7.3-5.2 11.8-5.2 6 0 12.2 3.1 13.2 10.2l-5.4.2z"/></g></g><path fill="#FFF" d="M278.2 53h-29.7l-58.4 53.2 58.4 55.8h29.7l-58.4-55.8"/><path fill="#FFF" d="M295.6 178.6c-8.4 5.9-18.6 9.4-29.7 9.4h-64c-28.4 0-51.5-23-51.5-51.4v-64c0-28.4 23.1-51.6 51.5-51.6h64c12.8 0 24.5 4.7 33.6 12.5l9.7-8.8C297.7 14.3 282.5 8 265.9 8h-64c-35.6 0-64.5 29-64.5 64.6v64c0 35.6 28.9 64.4 64.5 64.4h64c14.7 0 28.3-5 39.2-13.3l-9.5-9.1z"/><path d="M-595.8 627.8c-.9-2.1-2.2-3.9-3.7-5.5-3.3-3.4-7.8-5.5-12.9-5.5-5 0-9.6 2.1-12.9 5.5-3.3 3.4-5.3 8-5.3 13.1s2.1 9.7 5.3 13.1c3.3 3.4 7.8 5.5 12.9 5.5 5 0 9.6-2.1 12.9-5.5 1.5-1.6 2.8-3.3 3.7-5.4h.9c-.9 2.3-2.3 4.3-4 6.1-3.5 3.6-8.2 5.7-13.5 5.7-5.3 0-10-2.2-13.5-5.7-3.4-3.5-5.6-8.4-5.6-13.8 0-5.3 2.2-10.2 5.6-13.7 3.5-3.6 8.2-5.7 13.5-5.7 5.3 0 10 2.2 13.5 5.7 1.7 1.7 3.1 3.8 4 6.1h-.9z"/><path d="M-612.3 656.1c-5.4 0-10.5-2.2-14.4-6.1-3.8-3.9-5.9-9.1-5.9-14.6 0-5.4 2.1-10.6 5.9-14.6 3.8-3.9 8.9-6.1 14.4-6.1 5.4 0 10.5 2.2 14.4 6.1 1.8 1.9 3.3 4.1 4.3 6.5l.7 1.7h-3.6l-.3-.8c-.8-1.8-2-3.6-3.4-5.1-3.2-3.3-7.4-5.1-12-5.1s-8.8 1.8-12 5.1c-3.2 3.3-5 7.7-5 12.2 0 4.6 1.8 8.9 5 12.2 3.2 3.3 7.5 5.1 12 5.1s8.8-1.8 12-5.1c1.5-1.6 2.7-3.3 3.4-5l.3-.8h3.6l-.7 1.7c-1 2.4-2.4 4.6-4.3 6.5-3.8 4.1-8.9 6.2-14.4 6.2zM-581.8 621.2c3.6-3.7 8.6-5.9 14-5.9 5.5 0 10.5 2.2 14.1 5.9 3.6 3.6 5.8 8.6 5.8 14.1s-2.3 10.5-5.8 14.1c-3.6 3.7-8.6 5.9-14.1 5.9s-10.5-2.2-14-5.9c-3.6-3.6-5.8-8.6-5.8-14.1-.1-5.5 2.2-10.5 5.8-14.1zm27.5.7c-3.5-3.5-8.2-5.7-13.5-5.7-5.2 0-10 2.2-13.4 5.7-3.4 3.5-5.6 8.2-5.6 13.5s2.2 10 5.6 13.5c3.5 3.5 8.2 5.7 13.4 5.7 5.2 0 10-2.2 13.5-5.7 3.4-3.4 5.5-8.2 5.5-13.5s-2.1-10.1-5.5-13.5z"/><path d="M-567.8 656.6c-5.6 0-11.1-2.3-14.9-6.3-4-4.1-6.2-9.4-6.2-15s2.2-11 6.2-15c3.9-4 9.3-6.3 14.9-6.3 5.7 0 11 2.2 15 6.3s6.2 9.4 6.2 15-2.2 11-6.2 15c-4 4.1-9.3 6.3-15 6.3zm0-39.2c-4.7 0-9.2 1.9-12.5 5.3-3.4 3.4-5.2 7.9-5.2 12.6 0 4.7 1.8 9.2 5.2 12.6 3.4 3.4 7.8 5.3 12.5 5.3s9.2-1.9 12.6-5.3c3.3-3.4 5.2-7.8 5.2-12.6 0-4.7-1.8-9.2-5.2-12.6-3.4-3.4-7.9-5.3-12.6-5.3z"/><g><path d="M-526.5 615.9c25.5 0 25.5 38.9 0 38.9h-13.1v-38.9h13.1zm0 38.1c24.4 0 24.4-37.2 0-37.2h-12.3V654h12.3z"/><path d="M-526.5 656.1h-14.4v-41.4h14.4c6.3 0 11.6 2.2 15.3 6.5 3.3 3.8 5.1 8.8 5.1 14.2 0 5.4-1.8 10.4-5.1 14.2-3.7 4.2-9 6.5-15.3 6.5zm-11.1-3.4h11c5.3 0 9.7-1.9 12.8-5.4 2.8-3.1 4.3-7.4 4.3-12 0-8.4-5.3-17.4-17.1-17.4h-11v34.8z"/></g><g><path d="M-498 654h20.7v.8h-21.6v-38.9h21.5v.8H-498v18.1h20.1v.9H-498V654z"/><path d="M-476 656.1h-24.1v-41.4h23.9v3.3h-20.5v15.6h20.1v3.4h-20.1v15.7h20.7"/></g><g><path d="M-852.5 615.9v38.9h-5.6v-38.9h5.6zm1.1 18l13.6-18h7.1l-14.9 19.3 16.4 19.6h-7.3l-14.9-18v-2.9zM-818.4 635.1h6.6c4.7 0 7.1-3.4 7.1-6.8 0-3.3-2.3-6.7-7.1-6.7h-8.6v33.3h-5.6v-39h14.2c8.5 0 12.7 6.2 12.7 12.4 0 5.5-3.4 10.7-10.1 11.9l12.3 14.6h-7.3l-14.2-17.1v-2.6zM-789.2 621.3c3.6-3.6 8.6-5.9 14-5.9 5.5 0 10.5 2.3 14.1 5.9 3.5 3.6 5.8 8.6 5.8 14.1s-2.3 10.5-5.8 14.1c-3.6 3.7-8.6 5.9-14.1 5.9s-10.5-2.2-14-5.9c-3.5-3.6-5.8-8.6-5.8-14.1 0-5.6 2.3-10.5 5.8-14.1zm24.1 4c-2.6-2.6-6.2-4.2-10.1-4.2-3.8 0-7.4 1.6-10 4.2-2.6 2.6-4.2 6.1-4.2 10.1s1.6 7.5 4.2 10.1c2.6 2.6 6.1 4.2 10 4.2 3.8 0 7.5-1.6 10.1-4.2 2.5-2.6 4.1-6.1 4.1-10.1 0-4.1-1.6-7.6-4.1-10.1zM-749 654.8v-39l4.3.1 19 27.4v-27.4h5.6v39h-4.5l-18.8-27.2v27.2h-5.6zM-708.7 621.3c3.6-3.6 8.6-5.9 14-5.9 5.5 0 10.5 2.3 14.1 5.9 3.5 3.6 5.8 8.6 5.8 14.1s-2.3 10.5-5.8 14.1c-3.6 3.7-8.6 5.9-14.1 5.9s-10.5-2.2-14-5.9c-3.5-3.6-5.8-8.6-5.8-14.1 0-5.6 2.3-10.5 5.8-14.1zm24.1 4c-2.6-2.6-6.2-4.2-10.1-4.2-3.8 0-7.4 1.6-10 4.2-2.6 2.6-4.2 6.1-4.2 10.1s1.6 7.5 4.2 10.1c2.6 2.6 6.1 4.2 10 4.2 3.8 0 7.5-1.6 10.1-4.2 2.5-2.6 4.1-6.1 4.1-10.1 0-4.1-1.6-7.6-4.1-10.1zM-647.2 625.9c-.8-3.5-4.6-5-8-5-2.6.1-5.5.9-7.1 2.9-.8 1-1.1 2.3-.9 3.6.3 4 4.7 4.5 8.8 4.9 5.3.7 12 2.1 13.5 8.3.2.8.3 1.8.3 2.6 0 7.5-7.5 11.9-14.5 11.9-6 0-13.3-3.6-14-10.5l-.1-1.1 5.7-.1.1.8v-.2c.4 3.6 4.8 5.5 8.4 5.5 4.2 0 8.7-2.3 8.7-6.3 0-.4-.1-.8-.2-1.3-.7-3-4.7-3.5-8.6-3.8-6.1-.6-13.2-1.9-13.8-10.1v.1c-.2-2.6.4-5.2 2.1-7.4 2.6-3.4 7.3-5.2 11.8-5.2 6 0 12.2 3.1 13.2 10.2l-5.4.2z"/></g><g><path d="M-619.8 430h-29.7l-58.4 53.2 58.4 55.8h29.7l-58.4-55.8"/><path d="M-602.4 555.6c-8.4 5.9-18.6 9.4-29.7 9.4h-64c-28.4 0-51.5-23-51.5-51.4v-64c0-28.4 23.1-51.6 51.5-51.6h64c12.8 0 24.5 4.7 33.6 12.5l9.7-8.8c-11.4-10.4-26.6-16.7-43.2-16.7h-64c-35.6 0-64.5 29-64.5 64.6v64c0 35.6 28.9 64.4 64.5 64.4h64c14.7 0 28.3-5 39.2-13.3l-9.6-9.1z"/></g><g><path d="M299.2 600.8c-.9-2.1-2.2-3.9-3.7-5.5-3.3-3.4-7.8-5.5-12.9-5.5s-9.6 2.1-12.9 5.5c-3.3 3.4-5.3 8-5.3 13.1s2.1 9.7 5.3 13.1c3.3 3.4 7.8 5.5 12.9 5.5s9.6-2.1 12.9-5.5c1.5-1.6 2.8-3.3 3.7-5.4h.9c-.9 2.3-2.3 4.3-4 6.1-3.5 3.6-8.2 5.7-13.5 5.7-5.3 0-10-2.2-13.5-5.7-3.4-3.5-5.6-8.4-5.6-13.8 0-5.3 2.2-10.2 5.6-13.7 3.5-3.6 8.2-5.7 13.5-5.7 5.3 0 10 2.2 13.5 5.7 1.7 1.7 3.1 3.8 4 6.1h-.9z"/><path d="M282.7 629.1c-5.4 0-10.5-2.2-14.4-6.1-3.8-3.9-5.9-9.1-5.9-14.6 0-5.4 2.1-10.6 5.9-14.6 3.8-3.9 8.9-6.1 14.4-6.1 5.4 0 10.5 2.2 14.4 6.1 1.8 1.9 3.3 4.1 4.3 6.5l.7 1.7h-3.6l-.3-.8c-.8-1.8-2-3.6-3.4-5.1-3.2-3.3-7.4-5.1-12-5.1s-8.8 1.8-12 5.1c-3.2 3.3-5 7.7-5 12.2 0 4.6 1.8 8.9 5 12.2 3.2 3.3 7.5 5.1 12 5.1s8.8-1.8 12-5.1c1.5-1.6 2.7-3.3 3.4-5l.3-.8h3.6l-.7 1.7c-1 2.4-2.4 4.6-4.3 6.5-3.8 4.1-8.9 6.2-14.4 6.2zM313.2 594.2c3.6-3.7 8.6-5.9 14-5.9 5.5 0 10.5 2.2 14.1 5.9 3.6 3.6 5.8 8.6 5.8 14.1s-2.3 10.5-5.8 14.1c-3.6 3.7-8.6 5.9-14.1 5.9s-10.5-2.2-14-5.9c-3.6-3.6-5.8-8.6-5.8-14.1-.1-5.5 2.2-10.5 5.8-14.1zm27.5.7c-3.5-3.5-8.2-5.7-13.5-5.7-5.2 0-10 2.2-13.4 5.7-3.4 3.5-5.6 8.2-5.6 13.5s2.2 10 5.6 13.5c3.5 3.5 8.2 5.7 13.4 5.7 5.2 0 10-2.2 13.5-5.7 3.4-3.4 5.5-8.2 5.5-13.5s-2.1-10.1-5.5-13.5z"/><path d="M327.2 629.6c-5.6 0-11.1-2.3-14.9-6.3-4-4.1-6.2-9.4-6.2-15s2.2-11 6.2-15c3.9-4 9.3-6.3 14.9-6.3 5.7 0 11 2.2 15 6.3s6.2 9.4 6.2 15-2.2 11-6.2 15c-4 4.1-9.3 6.3-15 6.3zm0-39.2c-4.7 0-9.2 1.9-12.5 5.3-3.4 3.4-5.2 7.9-5.2 12.6 0 4.7 1.8 9.2 5.2 12.6 3.4 3.4 7.8 5.3 12.5 5.3s9.2-1.9 12.6-5.3c3.3-3.4 5.2-7.8 5.2-12.6 0-4.7-1.8-9.2-5.2-12.6-3.4-3.4-7.9-5.3-12.6-5.3z"/><g><path d="M368.5 588.9c25.5 0 25.5 38.9 0 38.9h-13.1v-38.9h13.1zm0 38.1c24.4 0 24.4-37.2 0-37.2h-12.3V627h12.3z"/><path d="M368.5 629.1h-14.4v-41.4h14.4c6.3 0 11.6 2.2 15.3 6.5 3.3 3.8 5.1 8.8 5.1 14.2 0 5.4-1.8 10.4-5.1 14.2-3.7 4.2-9 6.5-15.3 6.5zm-11.1-3.4h11c5.3 0 9.7-1.9 12.8-5.4 2.8-3.1 4.3-7.4 4.3-12 0-8.4-5.3-17.4-17.1-17.4h-11v34.8z"/></g><g><path d="M397 627h20.7v.8h-21.6v-38.9h21.5v.8H397v18.1h20.1v.9H397V627z"/><path d="M419 629.1h-24.1v-41.4h23.9v3.3h-20.5v15.6h20.1v3.4h-20.1v15.7H419"/></g><g><path d="M42.5 588.9v38.9H37v-38.9h5.5zm1.1 18l13.6-18h7.1l-14.9 19.3 16.4 19.6h-7.3l-14.9-18v-2.9zM76.6 608.1h6.6c4.7 0 7.1-3.4 7.1-6.8 0-3.3-2.3-6.7-7.1-6.7h-8.6v33.3H69v-39h14.2c8.5 0 12.7 6.2 12.7 12.4 0 5.5-3.4 10.7-10.1 11.9l12.3 14.6h-7.3l-14.2-17.1v-2.6zM105.8 594.3c3.6-3.6 8.6-5.9 14-5.9 5.5 0 10.5 2.3 14.1 5.9 3.5 3.6 5.8 8.6 5.8 14.1s-2.3 10.5-5.8 14.1c-3.6 3.7-8.6 5.9-14.1 5.9s-10.5-2.2-14-5.9c-3.5-3.6-5.8-8.6-5.8-14.1 0-5.6 2.3-10.5 5.8-14.1zm24.1 4c-2.6-2.6-6.2-4.2-10.1-4.2-3.8 0-7.4 1.6-10 4.2-2.6 2.6-4.2 6.1-4.2 10.1s1.6 7.5 4.2 10.1c2.6 2.6 6.1 4.2 10 4.2 3.8 0 7.5-1.6 10.1-4.2 2.5-2.6 4.1-6.1 4.1-10.1 0-4.1-1.6-7.6-4.1-10.1zM146 627.8v-39l4.3.1 19 27.4v-27.4h5.6v39h-4.5l-18.8-27.2v27.2H146zM186.3 594.3c3.6-3.6 8.6-5.9 14-5.9 5.5 0 10.5 2.3 14.1 5.9 3.5 3.6 5.8 8.6 5.8 14.1s-2.3 10.5-5.8 14.1c-3.6 3.7-8.6 5.9-14.1 5.9s-10.5-2.2-14-5.9c-3.5-3.6-5.8-8.6-5.8-14.1 0-5.6 2.3-10.5 5.8-14.1zm24.1 4c-2.6-2.6-6.2-4.2-10.1-4.2-3.8 0-7.4 1.6-10 4.2-2.6 2.6-4.2 6.1-4.2 10.1s1.6 7.5 4.2 10.1c2.6 2.6 6.1 4.2 10 4.2 3.8 0 7.5-1.6 10.1-4.2 2.5-2.6 4.1-6.1 4.1-10.1 0-4.1-1.6-7.6-4.1-10.1zM247.8 598.9c-.8-3.5-4.6-5-8-5-2.6.1-5.5.9-7.1 2.9-.8 1-1.1 2.3-.9 3.6.3 4 4.7 4.5 8.8 4.9 5.3.7 12 2.1 13.5 8.3.2.8.3 1.8.3 2.6 0 7.5-7.5 11.9-14.5 11.9-6 0-13.3-3.6-14-10.5l-.1-1.1 5.7-.1.1.8v-.2c.4 3.6 4.8 5.5 8.4 5.5 4.2 0 8.7-2.3 8.7-6.3 0-.4-.1-.8-.2-1.3-.7-3-4.7-3.5-8.6-3.8-6.1-.6-13.2-1.9-13.8-10.1v.1c-.2-2.6.4-5.2 2.1-7.4 2.6-3.4 7.3-5.2 11.8-5.2 6 0 12.2 3.1 13.2 10.2l-5.4.2z"/></g></g><g><path d="M275.2 403h-29.7l-58.4 53.2 58.4 55.8h29.7l-58.4-55.8"/><path d="M292.6 528.6c-8.4 5.9-18.6 9.4-29.7 9.4h-64c-28.4 0-51.5-23-51.5-51.4v-64c0-28.4 23.1-51.6 51.5-51.6h64c12.8 0 24.5 4.7 33.6 12.5l9.7-8.8C294.8 364.3 279.6 358 263 358h-64c-35.6 0-64.5 29-64.5 64.6v64c0 35.6 28.9 64.4 64.5 64.4h64c14.7 0 28.3-5 39.2-13.3l-9.6-9.1z"/></g></svg>