<svg xmlns="http://www.w3.org/2000/svg" width="431" height="70" viewBox="0 0 431 70" data-ember-extension="1"><g transform="translate(-107 -361)"><mask id="a"><path fill="#f0f0f0" d="M207 361.5h232v69H207z"/><path clip-path="url(#clipLeft)" d="M504.016 393.12l-17.203-28.655c-.95-1.582-3.242-2.88-5.092-2.88h-.056l-371.18.003c-1.72 0-2.41 1.135-1.74 2.564l17.323 28.96c.95 1.59.95 4.18 0 5.76l-17.21 28.653c-.952 1.582-.217 2.88 1.626 2.88l371.237-.003c1.85 0 4.14-1.29 5.092-2.88l17.203-28.644c.953-1.587.953-4.177 0-5.76z" fill="#f0f0f0"/><path clip-path="url(#clipRight)" d="M504.016 393.12l-17.203-28.655c-.95-1.582-3.242-2.88-5.092-2.88h-.056l-371.18.003c-1.72 0-2.41 1.135-1.74 2.564l17.323 28.96c.95 1.59.95 4.18 0 5.76l-17.21 28.653c-.952 1.582-.217 2.88 1.626 2.88l371.237-.003c1.85 0 4.14-1.29 5.092-2.88l17.203-28.644c.953-1.587.953-4.177 0-5.76z" fill="#f0f0f0" transform="translate(33)"/></mask><g fill="#757575"><path d="M119.63 371.146"/><path stroke="#1c549e" stroke-opacity=".64" d="M119.934 373.05h1.06l-.53-.918z" stroke-width=".03072"/><path d="M121.298 368.26"/><path stroke="#48abe0" stroke-opacity=".29" d="M121.892 369.91h.478l-.24-.414z" stroke-width=".03072"/><path d="M122.13 368.26"/><path stroke="#47abe0" stroke-opacity=".74" d="M122.35 369.17h1.23l-.615 1.065z" stroke-width=".03072"/><path d="M125.465 369.703"/><path stroke="#378ac7" stroke-opacity=".64" d="M124.102 371.605h1.06l-.53-.917z" stroke-width=".03072"/><path stroke="#1c549e" stroke-opacity=".64" d="M124.936 373.05h1.058l-.53-.918z" stroke-width=".03072"/><path d="M126.3 369.703"/><path stroke="#48abe0" stroke-opacity=".29" d="M125.226 370.94h.478l-.24.413z" stroke-width=".03072"/><path d="M126.3 362.484"/><path stroke="#3b6baf" stroke-opacity=".78" d="M126.482 364.49h1.3l-.65-1.125z" stroke-width=".03072"/><path d="M126.3 374.034"/><path stroke="#48abe0" stroke-opacity=".29" d="M126.893 375.684h.478l-.238-.413z" stroke-width=".03072"/><path d="M127.132 368.26"/><path stroke="#48abe0" stroke-opacity=".29" d="M127.727 369.496h.477l-.24.414z" stroke-width=".03072"/><path d="M127.965 395.69"/><path stroke="#49b969" stroke-opacity=".6" d="M126.632 396.7h1l-.5.866z" stroke-width=".03072"/><path d="M127.132 417.344"/><path stroke="#139952" stroke-opacity=".98" d="M127.152 418.083h1.627l-.815 1.41z" stroke-width=".03072"/><path d="M127.965 405.795"/><path stroke="#139952" stroke-opacity=".6" d="M128.3 407.672h1l-.5-.867z" stroke-width=".03072"/><path d="M128.8 410.126"/><path stroke="#139952" stroke-opacity=".6" d="M127.465 412.003h1l-.5-.866z" stroke-width=".03072"/><path d="M127.965 417.344"/><path stroke="#31aa5e" stroke-opacity=".86" d="M128.083 419.408h1.432l-.716-1.24z" stroke-width=".03072"/><path d="M129.632 363.928"/><path stroke="#5d83c2" d="M127.965 364.65h1.667l-.833 1.444zM128.8 366.094h1.666l-.834 1.443z" stroke-width=".03072"/><path d="M129.632 375.478"/><path stroke="#48abe0" stroke-opacity=".29" d="M128.56 376.714h.478l-.24.414z" stroke-width=".03072"/><path d="M128.8 405.795"/><path stroke="#139952" stroke-opacity=".6" d="M129.132 406.805h1l-.5.867zM128.3 408.25h1l-.5.865z" stroke-width=".03072"/><path d="M130.466 363.928"/><path stroke="#5d83c2" d="M128.8 366.094h1.666l-.834-1.444z" stroke-width=".03072"/><path d="M130.466 415.9"/><path stroke="#49b969" stroke-opacity=".62" d="M129.113 417.794h1.04l-.52-.9z" stroke-width=".03072"/><path d="M131.3 363.928"/><path stroke="#5d83c2" d="M129.632 364.65h1.667l-.834 1.444z" stroke-width=".03072"/><path d="M130.466 371.146"/><path stroke="#1c549e" stroke-opacity=".88" d="M130.564 371.953h1.47l-.735 1.274z" stroke-width=".03072"/><path d="M131.3 381.252"/><path stroke="#1c549e" stroke-opacity=".66" d="M129.917 382.22h1.098l-.55.95z" stroke-width=".03072"/><path d="M130.466 402.908"/><path stroke="#139952" stroke-opacity=".6" d="M130.8 403.918h1l-.5.866z" stroke-width=".03072"/><path d="M130.466 411.57"/><path stroke="#139952" stroke-opacity=".6" d="M130.8 412.58h1l-.5.866z" stroke-width=".03072"/><path d="M131.3 371.146"/><path stroke="#5d83c2" stroke-opacity=".66" d="M131.584 373.066h1.098l-.55-.95z" stroke-width=".03072"/><path d="M132.133 381.252"/><path stroke="#5d83c2" stroke-opacity=".96" d="M130.502 383.387h1.595l-.798-1.382z" stroke-width=".03072"/><path d="M132.133 387.027"/><path stroke="#3263aa" stroke-opacity=".96" d="M130.502 389.162h1.595l-.798-1.382z" stroke-width=".03072"/><path d="M132.133 410.126"/><path stroke="#139952" stroke-opacity=".6" d="M130.8 412.003h1l-.5-.866z" stroke-width=".03072"/><path d="M131.3 417.344"/><path stroke="#21a55d" d="M131.3 419.51h1.666l-.833-1.444z" stroke-width=".03072"/><path stroke="#11894a" stroke-opacity=".66" d="M130.747 420.71h1.105l-.553-.957z" stroke-width=".03072"/><path stroke="#10743b" stroke-opacity=".66" d="M131.58 422.154h1.105l-.552-.957z" stroke-width=".03072"/><path d="M132.966 366.815"/><path stroke="#5492cd" d="M131.3 367.537h1.666l-.833 1.444z" stroke-width=".03072"/><path stroke="#4090cb" d="M132.133 368.98h1.667l-.834 1.445z" stroke-width=".03072"/><path d="M132.966 375.478"/><path stroke="#48abe0" stroke-opacity=".66" d="M131.584 376.446h1.098l-.55.95z" stroke-width=".03072"/><path d="M132.133 388.47"/><path stroke="#1c549e" stroke-opacity=".66" d="M132.418 389.44h1.098l-.55.95z" stroke-width=".03072"/><path d="M132.133 405.795"/><path stroke="#33ac5f" stroke-opacity=".84" d="M132.267 406.633h1.4l-.7 1.21z" stroke-width=".03072"/><path d="M132.133 417.344"/><path stroke="#1c9854" d="M132.133 418.066h1.667l-.834 1.444z" stroke-width=".03072"/><path stroke="#149f5a" d="M131.3 419.51h1.666l-.833 1.444z" stroke-width=".03072"/><path stroke="#118144" stroke-opacity=".93" d="M132.19 421.002h1.555l-.78 1.347z" stroke-width=".03072"/><path d="M133.8 366.815"/><path stroke="#418cc8" d="M132.133 368.98h1.667l-.834-1.443z" stroke-width=".03072"/><path stroke="#4f9bd4" d="M132.966 370.425h1.667l-.833-1.444z" stroke-width=".03072"/><path d="M133.8 401.464"/><path stroke="#49b969" stroke-opacity=".6" d="M132.466 403.34h1l-.5-.866z" stroke-width=".03072"/><path d="M133.8 404.35"/><path stroke="#49b969" stroke-opacity=".97" d="M132.156 406.497h1.62l-.81-1.404z" stroke-width=".03072"/><path stroke="#49b969" stroke-opacity=".6" d="M133.3 407.672h1l-.5-.867z" stroke-width=".03072"/><path d="M132.966 414.457"/><path stroke="#21a55d" d="M132.966 416.623h1.667l-.833-1.444z" stroke-width=".03072"/><path stroke="#118a4b" d="M132.133 418.066h1.667l-.834-1.443z" stroke-width=".03072"/><path stroke="#188e4d" d="M132.966 419.51h1.667l-.833-1.444z" stroke-width=".03072"/><path stroke="#149f5a" d="M132.133 420.954h1.667l-.834-1.444z" stroke-width=".03072"/><path d="M133.8 365.372"/><path stroke="#3b6baf" d="M133.8 366.094h1.667l-.834 1.443z" stroke-width=".03072"/><path stroke="#4ca1d8" d="M132.966 367.537h1.667l-.833 1.444z" stroke-width=".03072"/><path stroke="#4f9bd4" d="M133.8 368.98h1.667l-.834 1.445z" stroke-width=".03072"/><path stroke="#5981c0" d="M132.966 370.425h1.667l-.833 1.443z" stroke-width=".03072"/><path stroke="#4a75b7" d="M133.8 371.868h1.667l-.834 1.444z" stroke-width=".03072"/><path d="M133.8 379.81"/><path stroke="#1c549e" stroke-opacity=".37" d="M134.326 380.986h.615l-.307.532z" stroke-width=".03072"/><path d="M133.8 414.457"/><path stroke="#21a55d" d="M133.8 415.18h1.667l-.834 1.443z" stroke-width=".03072"/><path stroke="#129351" d="M132.966 416.623h1.667l-.833 1.443z" stroke-width=".03072"/><path stroke="#13954f" d="M133.8 418.066h1.667l-.834 1.444z" stroke-width=".03072"/><path stroke="#118a4b" d="M132.966 419.51h1.667l-.833 1.444z" stroke-width=".03072"/><path d="M133.8 423.12"/><path stroke="#149f5a" d="M133.8 423.84h1.667l-.834 1.445z" stroke-width=".03072"/><path d="M135.467 366.815"/><path stroke="#5492cd" d="M133.8 368.98h1.667l-.834-1.443z" stroke-width=".03072"/><path stroke="#4d84c3" d="M134.633 370.425h1.668l-.833-1.444z" stroke-width=".03072"/><path stroke="#577fbf" d="M133.8 371.868h1.667l-.834-1.443z" stroke-width=".03072"/><path stroke="#4a83c2" d="M134.633 373.312h1.668l-.833-1.444z" stroke-width=".03072"/><path d="M135.467 375.478"/><path stroke="#5d83c2" stroke-opacity=".56" d="M134.17 377.323h.928l-.465-.804z" stroke-width=".03072"/><path d="M134.633 379.81"/><path stroke="#3b6baf" stroke-opacity=".89" d="M134.728 381.892h1.478l-.74-1.28z" stroke-width=".03072"/><path d="M135.467 387.027"/><path stroke="#5d83c2" stroke-opacity=".99" d="M133.807 389.187h1.654l-.827-1.433z" stroke-width=".03072"/><path d="M134.633 391.358"/><path stroke="#49b969" stroke-opacity=".39" d="M135.143 393.082h.648l-.323-.56z" stroke-width=".03072"/><path d="M134.633 394.245"/><path stroke="#49b969" stroke-opacity=".6" d="M134.967 396.122h1l-.5-.866z" stroke-width=".03072"/><path d="M134.633 411.57"/><path stroke="#1c9854" d="M134.633 413.735h1.668l-.833-1.444z" stroke-width=".03072"/><path stroke="#149f5a" d="M133.8 415.18h1.667l-.834-1.445z" stroke-width=".03072"/><path stroke="#149953" d="M134.633 416.623h1.668l-.833-1.444z" stroke-width=".03072"/><path stroke="#1b9b54" d="M133.8 418.066h1.667l-.834-1.443z" stroke-width=".03072"/><path stroke="#128d4b" d="M134.633 419.51h1.668l-.833-1.444z" stroke-width=".03072"/><path stroke="#118a4b" d="M133.8 420.954h1.667l-.834-1.444z" stroke-width=".03072"/><path d="M134.633 423.12"/><path stroke="#149f5a" d="M134.633 425.285h1.668l-.833-1.444z" stroke-width=".03072"/><path d="M136.3 366.815"/><path stroke="#5d83c2" d="M134.633 367.537h1.668l-.833 1.444z" stroke-width=".03072"/><path stroke="#406eb2" d="M135.467 368.98h1.667l-.833 1.445z" stroke-width=".03072"/><path stroke="#386db1" d="M134.633 370.425h1.668l-.833 1.443z" stroke-width=".03072"/><path stroke="#4e95d0" d="M135.467 371.868h1.667l-.833 1.444z" stroke-width=".03072"/><path stroke="#4370b3" d="M134.633 373.312h1.668l-.833 1.444z" stroke-width=".03072"/><path stroke="#4ca1d8" d="M135.467 374.756h1.667l-.833 1.443z" stroke-width=".03072"/><path d="M136.3 398.576"/><path stroke="#49b969" stroke-opacity=".6" d="M134.967 399.587h1l-.5.866z" stroke-width=".03072"/><path d="M136.3 401.464"/><path stroke="#12894a" stroke-opacity=".66" d="M134.915 402.43h1.104l-.553.956z" stroke-width=".03072"/><path d="M135.467 411.57"/><path stroke="#1c9854" d="M135.467 412.29h1.667l-.833 1.445z" stroke-width=".03072"/><path stroke="#188e4d" d="M134.633 413.735h1.668l-.833 1.444z" stroke-width=".03072"/><path stroke="#157f42" d="M135.467 415.18h1.667l-.833 1.443z" stroke-width=".03072"/><path stroke="#199751" d="M134.633 416.623h1.668l-.833 1.443z" stroke-width=".03072"/><path stroke="#118c4a" d="M135.467 418.066h1.667l-.833 1.444z" stroke-width=".03072"/><path stroke="#188e4d" d="M134.633 419.51h1.668l-.833 1.444z" stroke-width=".03072"/><path d="M135.467 423.12"/><path stroke="#149f5a" d="M135.467 423.84h1.667l-.833 1.445zM134.633 425.285h1.668l-.833 1.443z" stroke-width=".03072"/><path d="M137.134 366.815"/><path stroke="#4370b3" d="M135.467 368.98h1.667l-.833-1.443z" stroke-width=".03072"/><path stroke="#548ac7" d="M136.3 370.425h1.668l-.834-1.444z" stroke-width=".03072"/><path stroke="#3786c3" d="M135.467 371.868h1.667l-.833-1.443z" stroke-width=".03072"/><path stroke="#4b7ebe" d="M136.3 373.312h1.668l-.834-1.444z" stroke-width=".03072"/><path stroke="#3e79ba" d="M135.467 374.756h1.667l-.833-1.444z" stroke-width=".03072"/><path stroke="#2e77b8" d="M136.3 376.2h1.668l-.834-1.444z" stroke-width=".03072"/><path d="M136.3 388.47"/><path stroke="#49b969" stroke-opacity=".6" d="M136.634 390.347h1l-.5-.866z" stroke-width=".03072"/><path stroke="#49b969" stroke-opacity=".39" d="M135.977 391.638h.647l-.323-.56z" stroke-width=".03072"/><path d="M137.134 392.802"/><path stroke="#49b969" stroke-opacity=".39" d="M135.977 394.526h.647l-.323-.56z" stroke-width=".03072"/><path stroke="#49b969" stroke-opacity=".6" d="M136.634 396.122h1l-.5-.866z" stroke-width=".03072"/><path d="M136.3 400.02"/><path stroke="#10733a" stroke-opacity=".99" d="M136.307 402.18h1.654l-.826-1.432z" stroke-width=".03072"/><path d="M136.3 408.682"/><path stroke="#168748" d="M136.3 410.848h1.668l-.834-1.444z" stroke-width=".03072"/><path stroke="#129351" d="M135.467 412.29h1.667l-.833-1.442z" stroke-width=".03072"/><path stroke="#14904d" d="M136.3 413.735h1.668l-.834-1.444z" stroke-width=".03072"/><path stroke="#10763d" d="M135.467 415.18h1.667l-.833-1.445z" stroke-width=".03072"/><path stroke="#128c4a" d="M136.3 416.623h1.668l-.834-1.444z" stroke-width=".03072"/><path stroke="#159852" d="M135.467 418.066h1.667l-.833-1.443z" stroke-width=".03072"/><path stroke="#157f42" d="M136.3 419.51h1.668l-.834-1.444z" stroke-width=".03072"/><path stroke="#1c9854" d="M135.467 420.954h1.667l-.833-1.444z" stroke-width=".03072"/><path d="M137.968 366.815"/><path stroke="#5981c0" d="M136.3 367.537h1.668l-.834 1.444z" stroke-width=".03072"/><path stroke="#457ebe" d="M137.134 368.98h1.667l-.832 1.445z" stroke-width=".03072"/><path stroke="#3982c1" d="M136.3 370.425h1.668l-.834 1.443z" stroke-width=".03072"/><path stroke="#508cc9" d="M137.134 371.868h1.667l-.832 1.444z" stroke-width=".03072"/><path stroke="#416fb2" d="M136.3 373.312h1.668l-.834 1.444z" stroke-width=".03072"/><path stroke="#2e6eb2" d="M137.134 374.756h1.667l-.832 1.443z" stroke-width=".03072"/><path stroke="#4370b3" d="M136.3 376.2h1.668l-.834 1.443z" stroke-width=".03072"/><path stroke="#5d83c2" d="M137.134 377.643h1.667l-.832 1.444z" stroke-width=".03072"/><path d="M137.134 379.81"/><path stroke="#5d83c2" stroke-opacity=".95" d="M137.18 380.57h1.575l-.787 1.364z" stroke-width=".03072"/><path stroke="#2b5fa6" stroke-opacity=".94" d="M136.35 382.016h1.57l-.786 1.36z" stroke-width=".03072"/><path d="M137.968 389.914"/><path stroke="#49b969" stroke-opacity=".6" d="M136.634 390.925h1l-.5.866z" stroke-width=".03072"/><path stroke="#49b969" stroke-opacity=".39" d="M137.644 392.522h.647l-.322.56zM136.81 393.965h.648l-.324.56z" stroke-width=".03072"/><path d="M137.134 400.02"/><path stroke="#10743b" d="M137.134 400.742h1.667l-.832 1.444z" stroke-width=".03072"/><path d="M137.134 408.682"/><path stroke="#168748" d="M137.134 409.404h1.667l-.832 1.444z" stroke-width=".03072"/><path stroke="#148244" d="M136.3 410.848h1.668l-.834 1.443z" stroke-width=".03072"/><path stroke="#1fa159" d="M137.134 412.29h1.667l-.832 1.445z" stroke-width=".03072"/><path stroke="#137e42" d="M136.3 413.735h1.668l-.834 1.444z" stroke-width=".03072"/><path stroke="#138e4c" d="M137.134 415.18h1.667l-.832 1.443z" stroke-width=".03072"/><path stroke="#139550" d="M136.3 416.623h1.668l-.834 1.443z" stroke-width=".03072"/><path stroke="#157f42" d="M137.134 418.066h1.667l-.832 1.444z" stroke-width=".03072"/><path stroke="#1c9854" d="M136.3 419.51h1.668l-.834 1.444z" stroke-width=".03072"/><path d="M138.8 366.815"/><path stroke="#467abb" d="M137.134 368.98h1.667l-.832-1.443zM137.968 370.425h1.667l-.834-1.444z" stroke-width=".03072"/><path stroke="#3079ba" d="M137.134 371.868h1.667l-.832-1.443z" stroke-width=".03072"/><path stroke="#327fbf" d="M137.968 373.312h1.667l-.834-1.444z" stroke-width=".03072"/><path stroke="#336fb2" d="M137.134 374.756h1.667l-.832-1.444z" stroke-width=".03072"/><path stroke="#356eb2" d="M137.968 376.2h1.667l-.834-1.444z" stroke-width=".03072"/><path stroke="#306aaf" d="M137.134 377.643h1.667l-.832-1.444z" stroke-width=".03072"/><path stroke="#5492cd" d="M137.968 379.087h1.667l-.834-1.444z" stroke-width=".03072"/><path d="M137.968 391.358"/><path stroke="#49b969" stroke-opacity=".6" d="M138.3 393.235h1l-.5-.866z" stroke-width=".03072"/><path d="M137.968 397.133"/><path stroke="#49b969" stroke-opacity=".6" d="M138.3 399.01h1l-.5-.867z" stroke-width=".03072"/><path stroke="#10743b" d="M137.134 400.742h1.667l-.832-1.444z" stroke-width=".03072"/><path stroke="#10733a" stroke-opacity=".99" d="M137.974 402.18h1.654l-.827-1.432z" stroke-width=".03072"/><path d="M137.968 405.795"/><path stroke="#149f5a" d="M137.968 407.96h1.667l-.834-1.443zM137.134 409.404h1.667l-.832-1.444z" stroke-width=".03072"/><path stroke="#118547" d="M137.968 410.848h1.667l-.834-1.444z" stroke-width=".03072"/><path stroke="#239b56" d="M137.134 412.29h1.667l-.832-1.442z" stroke-width=".03072"/><path stroke="#139851" d="M137.968 413.735h1.667l-.834-1.444z" stroke-width=".03072"/><path stroke="#13904d" d="M137.134 415.18h1.667l-.832-1.445z" stroke-width=".03072"/><path stroke="#118c4a" d="M137.968 416.623h1.667l-.834-1.444z" stroke-width=".03072"/><path stroke="#138e4b" d="M137.134 418.066h1.667l-.832-1.443z" stroke-width=".03072"/><path stroke="#149f5a" d="M137.968 419.51h1.667l-.834-1.444zM137.134 420.954h1.667l-.832-1.444z" stroke-width=".03072"/><path d="M138.8 421.675"/><path stroke="#10743b" stroke-opacity=".47" d="M137.58 423.456h.777l-.39-.674z" stroke-width=".03072"/><path d="M138.8 365.372"/><path stroke="#d33c2f" stroke-opacity=".85" d="M138.93 366.204h1.41l-.705 1.223z" stroke-width=".03072"/><path stroke="#467abb" d="M137.968 367.537h1.667l-.834 1.444z" stroke-width=".03072"/><path stroke="#406eb2" d="M138.8 368.98h1.668l-.833 1.445z" stroke-width=".03072"/><path stroke="#3365aa" d="M137.968 370.425h1.667l-.834 1.443z" stroke-width=".03072"/><path stroke="#205aa2" d="M138.8 371.868h1.668l-.833 1.444z" stroke-width=".03072"/><path stroke="#3079ba" d="M137.968 373.312h1.667l-.834 1.444z" stroke-width=".03072"/><path stroke="#255ea6" d="M138.8 374.756h1.668l-.833 1.443z" stroke-width=".03072"/><path stroke="#316bb0" d="M137.968 376.2h1.667l-.834 1.443z" stroke-width=".03072"/><path stroke="#4886c4" d="M138.8 377.643h1.668l-.833 1.444z" stroke-width=".03072"/><path stroke="#5492cd" d="M137.968 379.087h1.667l-.834 1.443z" stroke-width=".03072"/><path stroke="#3163aa" d="M138.8 380.53h1.668l-.833 1.444z" stroke-width=".03072"/><path d="M138.8 397.133"/><path stroke="#49b969" stroke-opacity=".84" d="M138.935 397.97h1.4l-.7 1.212z" stroke-width=".03072"/><path d="M138.8 405.795"/><path stroke="#118a4b" d="M138.8 406.517h1.668l-.833 1.443z" stroke-width=".03072"/><path stroke="#149f5a" d="M137.968 407.96h1.667l-.834 1.444z" stroke-width=".03072"/><path stroke="#21a55d" d="M138.8 409.404h1.668l-.833 1.444z" stroke-width=".03072"/><path stroke="#108043" d="M137.968 410.848h1.667l-.834 1.443z" stroke-width=".03072"/><path stroke="#139650" d="M138.8 412.29h1.668l-.833 1.445z" stroke-width=".03072"/><path stroke="#128c4a" d="M137.968 413.735h1.667l-.834 1.444z" stroke-width=".03072"/><path stroke="#118d4b" d="M138.8 415.18h1.668l-.833 1.443z" stroke-width=".03072"/><path stroke="#118e4b" d="M137.968 416.623h1.667l-.834 1.443z" stroke-width=".03072"/><path stroke="#21a55d" d="M138.8 418.066h1.668l-.833 1.444z" stroke-width=".03072"/><path stroke="#149f5a" d="M137.968 419.51h1.667l-.834 1.444z" stroke-width=".03072"/><path d="M140.468 366.815"/><path stroke="#3e71b5" d="M138.8 368.98h1.668l-.833-1.443z" stroke-width=".03072"/><path stroke="#406eb2" d="M139.635 370.425h1.667l-.834-1.444z" stroke-width=".03072"/><path stroke="#245aa2" d="M138.8 371.868h1.668l-.833-1.443z" stroke-width=".03072"/><path stroke="#235aa2" d="M139.635 373.312h1.667l-.834-1.444z" stroke-width=".03072"/><path stroke="#2a64aa" d="M138.8 374.756h1.668l-.833-1.444z" stroke-width=".03072"/><path stroke="#205da4" d="M139.635 376.2h1.667l-.834-1.444z" stroke-width=".03072"/><path stroke="#2862a8" d="M138.8 377.643h1.668l-.833-1.444z" stroke-width=".03072"/><path stroke="#255ea6" d="M139.635 379.087h1.667l-.834-1.444z" stroke-width=".03072"/><path stroke="#548ac7" d="M138.8 380.53h1.668l-.833-1.443z" stroke-width=".03072"/><path stroke="#2d62a8" d="M139.635 381.974h1.667l-.834-1.444z" stroke-width=".03072"/><path d="M140.468 395.69"/><path stroke="#49b969" stroke-opacity=".6" d="M139.135 397.566h1l-.5-.866z" stroke-width=".03072"/><path d="M140.468 401.464"/><path stroke="#149f5a" stroke-opacity=".71" d="M139.04 403.423h1.19l-.595-1.03z" stroke-width=".03072"/><path stroke="#149f5a" d="M139.635 405.073h1.667l-.834-1.444z" stroke-width=".03072"/><path stroke="#118a4b" d="M138.8 406.517h1.668l-.833-1.444z" stroke-width=".03072"/><path stroke="#108446" d="M139.635 407.96h1.667l-.834-1.443z" stroke-width=".03072"/><path stroke="#21a55d" d="M138.8 409.404h1.668l-.833-1.444z" stroke-width=".03072"/><path stroke="#f3c741" d="M139.635 410.848h1.667l-.834-1.444z" stroke-width=".03072"/><path stroke="#139550" d="M138.8 412.29h1.668l-.833-1.442z" stroke-width=".03072"/><path stroke="#127b40" d="M139.635 413.735h1.667l-.834-1.444z" stroke-width=".03072"/><path stroke="#118b49" d="M138.8 415.18h1.668l-.833-1.445z" stroke-width=".03072"/><path stroke="#1c9854" d="M139.635 416.623h1.667l-.834-1.444zM138.8 418.066h1.668l-.833-1.443z" stroke-width=".03072"/><path d="M139.635 420.232"/><path stroke="#f8d151" d="M139.635 422.397h1.667l-.834-1.443z" stroke-width=".03072"/><path d="M140.468 365.372"/><path stroke="#d9463b" d="M140.468 366.094h1.667l-.833 1.443z" stroke-width=".03072"/><path d="M141.302 369.703"/><path stroke="#3365aa" d="M139.635 370.425h1.667l-.834 1.443z" stroke-width=".03072"/><path stroke="#306aaf" d="M140.468 371.868h1.667l-.833 1.444z" stroke-width=".03072"/><path stroke="#2760a7" d="M139.635 373.312h1.667l-.834 1.444z" stroke-width=".03072"/><path stroke="#347dbd" d="M140.468 374.756h1.667l-.833 1.443z" stroke-width=".03072"/><path stroke="#2158a1" d="M139.635 376.2h1.667l-.834 1.443z" stroke-width=".03072"/><path stroke="#2a66ac" d="M140.468 377.643h1.667l-.833 1.444z" stroke-width=".03072"/><path stroke="#2b62a8" d="M139.635 379.087h1.667l-.834 1.443z" stroke-width=".03072"/><path stroke="#2663a9" d="M140.468 380.53h1.667l-.833 1.444z" stroke-width=".03072"/><path stroke="#3163aa" d="M139.635 381.974h1.667l-.834 1.444z" stroke-width=".03072"/><path stroke="#4370b3" d="M140.468 383.418h1.667l-.833 1.443z" stroke-width=".03072"/><path d="M140.468 385.583"/><path stroke="#1c549e" stroke-opacity=".66" d="M140.753 386.552h1.098l-.548.95z" stroke-width=".03072"/><path d="M141.302 389.914"/><path stroke="#49b969" stroke-opacity=".6" d="M139.968 390.925h1l-.5.866z" stroke-width=".03072"/><path stroke="#49b969" stroke-opacity=".39" d="M140.978 392.522h.647l-.323.56z" stroke-width=".03072"/><path d="M140.468 394.245"/><path stroke="#49b969" stroke-opacity=".6" d="M140.802 395.256h1l-.5.866z" stroke-width=".03072"/><path d="M140.468 402.908"/><path stroke="#149f5a" d="M140.468 403.63h1.667l-.833 1.443z" stroke-width=".03072"/><path stroke="#129752" d="M139.635 405.073h1.667l-.834 1.444z" stroke-width=".03072"/><path stroke="#158748" d="M140.468 406.517h1.667l-.833 1.443z" stroke-width=".03072"/><path stroke="#118a4b" d="M139.635 407.96h1.667l-.834 1.444z" stroke-width=".03072"/><path stroke="#159550" d="M140.468 409.404h1.667l-.833 1.444z" stroke-width=".03072"/><path stroke="#8ab44d" d="M139.635 410.848h1.667l-.834 1.443z" stroke-width=".03072"/><path stroke="#108043" d="M140.468 412.29h1.667l-.833 1.445z" stroke-width=".03072"/><path stroke="#137a3f" d="M139.635 413.735h1.667l-.834 1.444z" stroke-width=".03072"/><path stroke="#21a55d" d="M140.468 415.18h1.667l-.833 1.443z" stroke-width=".03072"/><path stroke="#1c9854" d="M139.635 416.623h1.667l-.834 1.443z" stroke-width=".03072"/><path stroke="#149f5a" stroke-opacity=".71" d="M140.707 418.273h1.19l-.595 1.03z" stroke-width=".03072"/><path stroke="#10743b" stroke-opacity=".71" d="M139.873 419.717h1.19l-.595 1.03z" stroke-width=".03072"/><path stroke="#f8d151" d="M140.468 420.954h1.667l-.833 1.443z" stroke-width=".03072"/><path d="M140.468 426.006"/><path stroke="#f7c841" stroke-opacity=".52" d="M140.87 427.077h.863l-.43.747z" stroke-width=".03072"/><path d="M141.302 365.372"/><path stroke="#d23e31" d="M141.302 367.537h1.667l-.835-1.443z" stroke-width=".03072"/><path stroke="#b02828" stroke-opacity=".47" d="M140.913 368.596h.778l-.388-.674z" stroke-width=".03072"/><path d="M142.135 369.703"/><path stroke="#306aaf" d="M140.468 371.868h1.667l-.833-1.443z" stroke-width=".03072"/><path stroke="#5d83c2" d="M141.302 373.312h1.667l-.835-1.444z" stroke-width=".03072"/><path stroke="#306aaf" d="M140.468 374.756h1.667l-.833-1.444z" stroke-width=".03072"/><path stroke="#337ebe" d="M141.302 376.2h1.667l-.835-1.444z" stroke-width=".03072"/><path stroke="#2863a9" d="M140.468 377.643h1.667l-.833-1.444z" stroke-width=".03072"/><path stroke="#3365aa" d="M141.302 379.087h1.667l-.835-1.444z" stroke-width=".03072"/><path stroke="#2869ae" d="M140.468 380.53h1.667l-.833-1.443z" stroke-width=".03072"/><path stroke="#2d70b3" d="M141.302 381.974h1.667l-.835-1.444z" stroke-width=".03072"/><path stroke="#3163aa" d="M140.468 383.418h1.667l-.833-1.444z" stroke-width=".03072"/><path stroke="#4487c4" d="M141.302 384.86h1.667l-.835-1.442z" stroke-width=".03072"/><path d="M141.302 391.358"/><path stroke="#49b969" stroke-opacity=".39" d="M141.812 393.082h.647l-.325-.56z" stroke-width=".03072"/><path d="M141.302 400.02"/><path stroke="#129351" d="M141.302 402.186h1.667l-.835-1.444z" stroke-width=".03072"/><path stroke="#21a55d" d="M140.468 403.63h1.667l-.833-1.444z" stroke-width=".03072"/><path stroke="#169953" d="M141.302 405.073h1.667l-.835-1.444z" stroke-width=".03072"/><path stroke="#108043" d="M140.468 406.517h1.667l-.833-1.444z" stroke-width=".03072"/><path stroke="#188e4d" d="M141.302 407.96h1.667l-.835-1.443z" stroke-width=".03072"/><path stroke="#108446" d="M140.468 409.404h1.667l-.833-1.444z" stroke-width=".03072"/><path stroke="#108043" d="M141.302 410.848h1.667l-.835-1.444z" stroke-width=".03072"/><path stroke="#12914e" d="M140.468 412.29h1.667l-.833-1.442z" stroke-width=".03072"/><path stroke="#188e4d" d="M141.302 413.735h1.667l-.835-1.444z" stroke-width=".03072"/><path stroke="#239b56" d="M140.468 415.18h1.667l-.833-1.445z" stroke-width=".03072"/><path d="M141.302 417.344"/><path stroke="#f7ae3c" d="M141.302 419.51h1.667l-.835-1.444z" stroke-width=".03072"/><path stroke="#f6a02e" d="M140.468 420.954h1.667l-.833-1.444z" stroke-width=".03072"/><path stroke="#f8d151" d="M141.302 422.397h1.667l-.835-1.443z" stroke-width=".03072"/><path d="M141.302 423.12"/><path stroke="#f69a2a" stroke-opacity=".52" d="M141.704 424.936h.863l-.432-.747z" stroke-width=".03072"/><path d="M142.135 365.372"/><path stroke="#d03d2f" d="M142.135 366.094h1.667l-.833 1.443z" stroke-width=".03072"/><path stroke="#cb3d33" d="M141.302 367.537h1.667l-.835 1.444z" stroke-width=".03072"/><path stroke="#c5372d" d="M142.135 368.98h1.667l-.833 1.445z" stroke-width=".03072"/><path stroke="#f34e37" stroke-opacity=".47" d="M141.746 370.81h.778l-.39.673z" stroke-width=".03072"/><path d="M142.97 372.59"/><path stroke="#984152" d="M141.302 373.312h1.667l-.835 1.444z" stroke-width=".03072"/><path stroke="#4370b3" d="M142.135 374.756h1.667l-.833 1.443z" stroke-width=".03072"/><path stroke="#3877b9" d="M141.302 376.2h1.667l-.835 1.443z" stroke-width=".03072"/><path stroke="#386db1" d="M142.135 377.643h1.667l-.833 1.444z" stroke-width=".03072"/><path stroke="#418cc8" d="M141.302 379.087h1.667l-.835 1.443z" stroke-width=".03072"/><path stroke="#3365aa" d="M142.135 380.53h1.667l-.833 1.444z" stroke-width=".03072"/><path stroke="#3569ae" d="M141.302 381.974h1.667l-.835 1.444z" stroke-width=".03072"/><path stroke="#406eb2" d="M142.135 383.418h1.667l-.833 1.443z" stroke-width=".03072"/><path stroke="#457fbf" d="M141.302 384.86h1.667l-.835 1.445zM142.135 386.305h1.667l-.833 1.444z" stroke-width=".03072"/><path d="M142.97 392.802"/><path stroke="#49b969" stroke-opacity=".39" d="M141.812 393.965h.647l-.325.56z" stroke-width=".03072"/><path d="M142.135 400.02"/><path stroke="#149f5a" d="M142.135 400.742h1.667l-.833 1.444z" stroke-width=".03072"/><path stroke="#239b56" d="M141.302 402.186h1.667l-.835 1.443zM142.135 403.63h1.667l-.833 1.443z" stroke-width=".03072"/><path stroke="#168748" d="M141.302 405.073h1.667l-.835 1.444z" stroke-width=".03072"/><path stroke="#32ad62" d="M142.135 406.517h1.667l-.833 1.443z" stroke-width=".03072"/><path stroke="#108446" d="M141.302 407.96h1.667l-.835 1.444z" stroke-width=".03072"/><path stroke="#148244" d="M142.135 409.404h1.667l-.833 1.444z" stroke-width=".03072"/><path stroke="#12914e" d="M141.302 410.848h1.667l-.835 1.443z" stroke-width=".03072"/><path stroke="#118a4b" d="M142.135 412.29h1.667l-.833 1.445z" stroke-width=".03072"/><path stroke="#1c9854" d="M141.302 413.735h1.667l-.835 1.444z" stroke-width=".03072"/><path stroke="#10743b" stroke-opacity=".47" d="M142.58 415.564h.778l-.39.674z" stroke-width=".03072"/><path d="M142.135 417.344"/><path stroke="#f9d362" d="M142.135 418.066h1.667l-.833 1.444z" stroke-width=".03072"/><path stroke="#f69e2e" d="M141.302 419.51h1.667l-.835 1.444z" stroke-width=".03072"/><path stroke="#f7b645" d="M142.135 420.954h1.667l-.833 1.443z" stroke-width=".03072"/><path d="M142.135 423.12"/><path stroke="#f7c841" stroke-opacity=".52" d="M142.537 424.19h.863l-.43.746z" stroke-width=".03072"/><path d="M142.97 365.372"/><path stroke="#de4331" d="M142.97 367.537h1.666l-.834-1.443z" stroke-width=".03072"/><path stroke="#cb3b2e" d="M142.135 368.98h1.667l-.833-1.443z" stroke-width=".03072"/><path stroke="#c5372d" d="M142.97 370.425h1.666l-.834-1.444z" stroke-width=".03072"/><path stroke="#f34e37" stroke-opacity=".47" d="M142.58 371.483h.778l-.39-.673z" stroke-width=".03072"/><path stroke="#b02828" stroke-opacity=".47" d="M143.413 372.927h.778l-.388-.674z" stroke-width=".03072"/><path stroke="#4370b3" d="M142.135 374.756h1.667l-.833-1.444z" stroke-width=".03072"/><path stroke="#5492cd" d="M142.97 376.2h1.666l-.834-1.444z" stroke-width=".03072"/><path stroke="#3673b6" d="M142.135 377.643h1.667l-.833-1.444z" stroke-width=".03072"/><path stroke="#366eb2" d="M142.97 379.087h1.666l-.834-1.444z" stroke-width=".03072"/><path stroke="#467abb" d="M142.135 380.53h1.667l-.833-1.443z" stroke-width=".03072"/><path stroke="#3768ad" d="M142.97 381.974h1.666l-.834-1.444z" stroke-width=".03072"/><path stroke="#3569ae" d="M142.135 383.418h1.667l-.833-1.444z" stroke-width=".03072"/><path stroke="#3e71b5" d="M142.97 384.86h1.666l-.834-1.442z" stroke-width=".03072"/><path stroke="#4a83c2" d="M142.135 386.305h1.667l-.833-1.444z" stroke-width=".03072"/><path stroke="#3c75b7" d="M142.97 387.75h1.666l-.834-1.445z" stroke-width=".03072"/><path d="M142.97 388.47"/><path stroke="#5d83c2" stroke-opacity=".66" d="M143.253 390.39h1.098l-.548-.95z" stroke-width=".03072"/><path d="M142.97 397.133"/><path stroke="#129351" d="M142.97 399.298h1.666l-.834-1.443z" stroke-width=".03072"/><path stroke="#149f5a" d="M142.135 400.742h1.667l-.833-1.444z" stroke-width=".03072"/><path stroke="#14924e" d="M142.97 402.186h1.666l-.834-1.444z" stroke-width=".03072"/><path stroke="#239b56" d="M142.135 403.63h1.667l-.833-1.444z" stroke-width=".03072"/><path stroke="#149953" d="M142.97 405.073h1.666l-.834-1.444z" stroke-width=".03072"/><path stroke="#199a54" d="M142.135 406.517h1.667l-.833-1.444z" stroke-width=".03072"/><path stroke="#15934f" d="M142.97 407.96h1.666l-.834-1.443z" stroke-width=".03072"/><path stroke="#188e4d" d="M142.135 409.404h1.667l-.833-1.444z" stroke-width=".03072"/><path stroke="#189e57" d="M142.97 410.848h1.666l-.834-1.444z" stroke-width=".03072"/><path stroke="#12934f" d="M142.135 412.29h1.667l-.833-1.442z" stroke-width=".03072"/><path stroke="#149f5a" stroke-opacity=".71" d="M143.207 413.528h1.19l-.595-1.03z" stroke-width=".03072"/><path d="M142.97 414.457"/><path stroke="#f7b141" d="M142.97 416.623h1.666l-.834-1.444z" stroke-width=".03072"/><path stroke="#fade68" d="M142.135 418.066h1.667l-.833-1.443z" stroke-width=".03072"/><path stroke="#f8ca4a" d="M142.97 419.51h1.666l-.834-1.444z" stroke-width=".03072"/><path stroke="#f69e2d" d="M142.135 420.954h1.667l-.833-1.444z" stroke-width=".03072"/><path stroke="#f7b645" d="M142.97 422.397h1.666l-.834-1.443z" stroke-width=".03072"/><path d="M143.802 424.563"/><path stroke="#f6b135" stroke-opacity=".95" d="M142.18 426.69h1.576l-.787-1.366z" stroke-width=".03072"/><path d="M143.802 365.372"/><path stroke="#e84834" d="M143.802 366.094h1.667l-.834 1.443z" stroke-width=".03072"/><path stroke="#da4231" d="M142.97 367.537h1.666l-.834 1.444z" stroke-width=".03072"/><path stroke="#d43e2f" d="M143.802 368.98h1.667l-.834 1.445z" stroke-width=".03072"/><path stroke="#ce3d31" d="M142.97 370.425h1.666l-.834 1.443z" stroke-width=".03072"/><path stroke="#c4382e" d="M143.802 371.868h1.667l-.834 1.444z" stroke-width=".03072"/><path d="M144.636 375.478"/><path stroke="#5492cd" d="M142.97 376.2h1.666l-.834 1.443zM143.802 377.643h1.667l-.834 1.444z" stroke-width=".03072"/><path stroke="#3871b5" d="M142.97 379.087h1.666l-.834 1.443z" stroke-width=".03072"/><path stroke="#3e7cbc" d="M143.802 380.53h1.667l-.834 1.444z" stroke-width=".03072"/><path stroke="#3067ad" d="M142.97 381.974h1.666l-.834 1.444z" stroke-width=".03072"/><path stroke="#3b6fb3" d="M143.802 383.418h1.667l-.834 1.443z" stroke-width=".03072"/><path stroke="#4370b3" d="M142.97 384.86h1.666l-.834 1.445z" stroke-width=".03072"/><path stroke="#4376b8" d="M143.802 386.305h1.667l-.834 1.444z" stroke-width=".03072"/><path stroke="#4370b3" d="M142.97 387.75h1.666l-.834 1.443zM143.802 389.193h1.667l-.834 1.443z" stroke-width=".03072"/><path d="M143.802 397.133"/><path stroke="#1a8949" d="M143.802 397.855h1.667l-.834 1.443z" stroke-width=".03072"/><path stroke="#2fac61" d="M142.97 399.298h1.666l-.834 1.444z" stroke-width=".03072"/><path stroke="#128d4b" d="M143.802 400.742h1.667l-.834 1.444z" stroke-width=".03072"/><path stroke="#189e57" d="M142.97 402.186h1.666l-.834 1.443z" stroke-width=".03072"/><path stroke="#118e4b" d="M143.802 403.63h1.667l-.834 1.443z" stroke-width=".03072"/><path stroke="#129852" d="M142.97 405.073h1.666l-.834 1.444z" stroke-width=".03072"/><path stroke="#1a8949" d="M143.802 406.517h1.667l-.834 1.443z" stroke-width=".03072"/><path stroke="#118f4c" d="M142.97 407.96h1.666l-.834 1.444z" stroke-width=".03072"/><path stroke="#149f5a" d="M143.802 409.404h1.667l-.834 1.444z" stroke-width=".03072"/><path stroke="#189e57" d="M142.97 410.848h1.666l-.834 1.443z" stroke-width=".03072"/><path d="M143.802 414.457"/><path stroke="#f6a433" d="M143.802 415.18h1.667l-.834 1.443z" stroke-width=".03072"/><path stroke="#118849" d="M142.97 416.623h1.666l-.834 1.443z" stroke-width=".03072"/><path stroke="#f69e2b" d="M143.802 418.066h1.667l-.834 1.444z" stroke-width=".03072"/><path stroke="#f9cb5e" d="M142.97 419.51h1.666l-.834 1.444z" stroke-width=".03072"/><path stroke="#f8d151" d="M143.802 420.954h1.667l-.834 1.443z" stroke-width=".03072"/><path d="M144.636 365.372"/><path stroke="#e74834" d="M144.636 367.537h1.667l-.834-1.443z" stroke-width=".03072"/><path stroke="#da4231" d="M143.802 368.98h1.667l-.834-1.443z" stroke-width=".03072"/><path stroke="#cc3b2e" d="M144.636 370.425h1.667l-.834-1.444z" stroke-width=".03072"/><path stroke="#e84a35" d="M143.802 371.868h1.667l-.834-1.443z" stroke-width=".03072"/><path stroke="#c5382e" d="M144.636 373.312h1.667l-.834-1.444z" stroke-width=".03072"/><path stroke="#f34e37" stroke-opacity=".71" d="M144.04 374.55h1.19l-.594-1.03z" stroke-width=".03072"/><path d="M145.47 375.478"/><path stroke="#4f9bd4" d="M143.802 377.643h1.667l-.834-1.444z" stroke-width=".03072"/><path stroke="#5d83c2" d="M144.636 379.087h1.667l-.834-1.444z" stroke-width=".03072"/><path stroke="#4d7fbf" d="M143.802 380.53h1.667l-.834-1.443z" stroke-width=".03072"/><path stroke="#407ebe" d="M144.636 381.974h1.667l-.834-1.444z" stroke-width=".03072"/><path stroke="#3c77b9" d="M143.802 383.418h1.667l-.834-1.444z" stroke-width=".03072"/><path stroke="#2e6baf" d="M144.636 384.86h1.667l-.834-1.442z" stroke-width=".03072"/><path stroke="#4e78ba" d="M143.802 386.305h1.667l-.834-1.444z" stroke-width=".03072"/><path stroke="#3368ad" d="M144.636 387.75h1.667l-.834-1.445z" stroke-width=".03072"/><path stroke="#4370b3" d="M143.802 389.193h1.667l-.834-1.444z" stroke-width=".03072"/><path stroke="#3365aa" d="M144.636 390.636h1.667l-.834-1.443z" stroke-width=".03072"/><path d="M144.636 394.245"/><path stroke="#2fac61" d="M144.636 396.41h1.667l-.834-1.443z" stroke-width=".03072"/><path stroke="#32ad62" d="M143.802 397.855h1.667l-.834-1.444z" stroke-width=".03072"/><path stroke="#31a25a" d="M144.636 399.298h1.667l-.834-1.443z" stroke-width=".03072"/><path stroke="#11783d" d="M143.802 400.742h1.667l-.834-1.444z" stroke-width=".03072"/><path stroke="#139650" d="M144.636 402.186h1.667l-.834-1.444z" stroke-width=".03072"/><path stroke="#129550" d="M143.802 403.63h1.667l-.834-1.444z" stroke-width=".03072"/><path stroke="#137e42" d="M144.636 405.073h1.667l-.834-1.444z" stroke-width=".03072"/><path stroke="#168748" d="M143.802 406.517h1.667l-.834-1.444z" stroke-width=".03072"/><path stroke="#148244" d="M144.636 407.96h1.667l-.834-1.443z" stroke-width=".03072"/><path stroke="#129351" d="M143.802 409.404h1.667l-.834-1.444z" stroke-width=".03072"/><path stroke="#10733a" stroke-opacity=".92" d="M144.704 410.788h1.53l-.765-1.324z" stroke-width=".03072"/><path stroke="#10743b" stroke-opacity=".47" d="M144.247 411.907h.778l-.39-.674z" stroke-width=".03072"/><path stroke="#f7c841" d="M144.636 413.735h1.667l-.834-1.444z" stroke-width=".03072"/><path stroke="#f8d151" d="M143.802 415.18h1.667l-.834-1.445z" stroke-width=".03072"/><path stroke="#f6a232" d="M144.636 416.623h1.667l-.834-1.444z" stroke-width=".03072"/><path stroke="#31803b" d="M143.802 418.066h1.667l-.834-1.443z" stroke-width=".03072"/><path stroke="#f69e2b" d="M144.636 419.51h1.667l-.834-1.444z" stroke-width=".03072"/><path stroke="#f9cb5e" d="M143.802 420.954h1.667l-.834-1.444z" stroke-width=".03072"/><path stroke="#f8d151" d="M144.636 422.397h1.667l-.834-1.443z" stroke-width=".03072"/><path d="M145.47 424.563"/><path stroke="#f69a2a" stroke-opacity=".52" d="M144.204 426.38h.863l-.43-.747z" stroke-width=".03072"/><path d="M146.303 363.928"/><path stroke="#b02828" stroke-opacity=".71" d="M144.874 364.857h1.19l-.595 1.03z" stroke-width=".03072"/><path stroke="#e74937" d="M145.47 366.094h1.666l-.833 1.443z" stroke-width=".03072"/><path stroke="#e14532" d="M144.636 367.537h1.667l-.834 1.444z" stroke-width=".03072"/><path stroke="#d03d2f" d="M145.47 368.98h1.666l-.833 1.445z" stroke-width=".03072"/><path stroke="#d23e31" d="M144.636 370.425h1.667l-.834 1.443z" stroke-width=".03072"/><path stroke="#e94935" d="M145.47 371.868h1.666l-.833 1.444z" stroke-width=".03072"/><path stroke="#c4382e" d="M144.636 373.312h1.667l-.834 1.444z" stroke-width=".03072"/><path stroke="#e04634" d="M145.47 374.756h1.666l-.833 1.443z" stroke-width=".03072"/><path stroke="#b02828" stroke-opacity=".71" d="M144.874 376.406h1.19l-.595 1.03z" stroke-width=".03072"/><path d="M146.303 378.365"/><path stroke="#567ebf" d="M144.636 379.087h1.667l-.834 1.443z" stroke-width=".03072"/><path stroke="#518fcb" d="M145.47 380.53h1.666l-.833 1.444z" stroke-width=".03072"/><path stroke="#3d74b6" d="M144.636 381.974h1.667l-.834 1.444z" stroke-width=".03072"/><path stroke="#2d65ab" d="M145.47 383.418h1.666l-.833 1.443z" stroke-width=".03072"/><path stroke="#3e6fb4" d="M144.636 384.86h1.667l-.834 1.445z" stroke-width=".03072"/><path stroke="#3768ad" d="M145.47 386.305h1.666l-.833 1.444z" stroke-width=".03072"/><path stroke="#4587c5" d="M144.636 387.75h1.667l-.834 1.443z" stroke-width=".03072"/><path stroke="#407dbd" d="M145.47 389.193h1.666l-.833 1.443z" stroke-width=".03072"/><path stroke="#4370b3" d="M144.636 390.636h1.667l-.834 1.444z" stroke-width=".03072"/><path stroke="#3e79ba" d="M145.47 392.08h1.666l-.833 1.444z" stroke-width=".03072"/><path d="M145.47 394.245"/><path stroke="#149f5a" d="M145.47 394.967h1.666l-.833 1.444z" stroke-width=".03072"/><path stroke="#3db365" d="M144.636 396.41h1.667l-.834 1.445z" stroke-width=".03072"/><path stroke="#1e904e" d="M145.47 397.855h1.666l-.833 1.443z" stroke-width=".03072"/><path stroke="#299651" d="M144.636 399.298h1.667l-.834 1.444z" stroke-width=".03072"/><path stroke="#1fa159" d="M145.47 400.742h1.666l-.833 1.444z" stroke-width=".03072"/><path stroke="#139550" d="M144.636 402.186h1.667l-.834 1.443z" stroke-width=".03072"/><path stroke="#239b56" d="M145.47 403.63h1.666l-.833 1.443z" stroke-width=".03072"/><path stroke="#137e42" d="M144.636 405.073h1.667l-.834 1.444z" stroke-width=".03072"/><path stroke="#157f42" d="M145.47 406.517h1.666l-.833 1.443z" stroke-width=".03072"/><path stroke="#108043" d="M144.636 407.96h1.667l-.834 1.444z" stroke-width=".03072"/><path d="M146.303 410.126"/><path stroke="#149f5a" stroke-opacity=".47" d="M145.08 411.233h.778l-.39.674z" stroke-width=".03072"/><path stroke="#f6ac33" d="M145.47 412.29h1.666l-.833 1.445z" stroke-width=".03072"/><path stroke="#fae16e" d="M144.636 413.735h1.667l-.834 1.444z" stroke-width=".03072"/><path stroke="#f7b737" d="M145.47 415.18h1.666l-.833 1.443z" stroke-width=".03072"/><path stroke="#f69f2c" d="M144.636 416.623h1.667l-.834 1.443zM145.47 418.066h1.666l-.833 1.444z" stroke-width=".03072"/><path stroke="#f8c748" d="M144.636 419.51h1.667l-.834 1.444z" stroke-width=".03072"/><path stroke="#f8d04f" d="M145.47 420.954h1.666l-.833 1.443z" stroke-width=".03072"/><path stroke="#f69a2a" stroke-opacity=".97" d="M144.658 422.417h1.622l-.81 1.404z" stroke-width=".03072"/><path d="M146.303 365.372"/><path stroke="#bd332c" d="M146.303 367.537h1.667l-.834-1.443z" stroke-width=".03072"/><path stroke="#da4231" d="M145.47 368.98h1.666l-.833-1.443z" stroke-width=".03072"/><path stroke="#d33e2f" d="M146.303 370.425h1.667l-.834-1.444z" stroke-width=".03072"/><path stroke="#dd4332" d="M145.47 371.868h1.666l-.833-1.443z" stroke-width=".03072"/><path stroke="#db4331" d="M146.303 373.312h1.667l-.834-1.444z" stroke-width=".03072"/><path stroke="#d94539" d="M145.47 374.756h1.666l-.833-1.444z" stroke-width=".03072"/><path stroke="#dd4332" d="M146.303 376.2h1.667l-.834-1.444z" stroke-width=".03072"/><path stroke="#b02828" stroke-opacity=".47" d="M145.914 377.258h.778l-.39-.674z" stroke-width=".03072"/><path stroke="#f34e37" stroke-opacity=".47" d="M146.747 378.702h.778l-.39-.674z" stroke-width=".03072"/><path stroke="#577fbf" d="M145.47 380.53h1.666l-.833-1.443z" stroke-width=".03072"/><path stroke="#518fcb" d="M146.303 381.974h1.667l-.834-1.444z" stroke-width=".03072"/><path stroke="#4b7ebe" d="M145.47 383.418h1.666l-.833-1.444z" stroke-width=".03072"/><path stroke="#4277b9" d="M146.303 384.86h1.667l-.834-1.442z" stroke-width=".03072"/><path stroke="#376aaf" d="M145.47 386.305h1.666l-.833-1.444z" stroke-width=".03072"/><path stroke="#3e6eb2" d="M146.303 387.75h1.667l-.834-1.445z" stroke-width=".03072"/><path stroke="#3673b6" d="M145.47 389.193h1.666l-.833-1.444z" stroke-width=".03072"/><path stroke="#2863a8" d="M146.303 390.636h1.667l-.834-1.443z" stroke-width=".03072"/><path stroke="#4370b3" d="M145.47 392.08h1.666l-.833-1.444z" stroke-width=".03072"/><path stroke="#4172b5" d="M146.303 393.524h1.667l-.834-1.444z" stroke-width=".03072"/><path stroke="#149f5a" d="M145.47 394.967h1.666l-.833-1.443z" stroke-width=".03072"/><path stroke="#1a539c" d="M146.303 396.41h1.667l-.834-1.443z" stroke-width=".03072"/><path stroke="#1c9854" d="M145.47 397.855h1.666l-.833-1.444z" stroke-width=".03072"/><path stroke="#158748" d="M146.303 399.298h1.667l-.834-1.443z" stroke-width=".03072"/><path stroke="#239b56" d="M145.47 400.742h1.666l-.833-1.444z" stroke-width=".03072"/><path stroke="#299e57" d="M146.303 402.186h1.667l-.834-1.444z" stroke-width=".03072"/><path stroke="#188e4d" d="M145.47 403.63h1.666l-.833-1.444z" stroke-width=".03072"/><path stroke="#1c9854" d="M146.303 405.073h1.667l-.834-1.444z" stroke-width=".03072"/><path stroke="#188e4d" d="M145.47 406.517h1.666l-.833-1.444z" stroke-width=".03072"/><path d="M147.136 407.24"/><path stroke="#149f5a" stroke-opacity=".47" d="M145.914 409.02h.778l-.39-.675z" stroke-width=".03072"/><path stroke="#f7c943" d="M146.303 410.848h1.667l-.834-1.444z" stroke-width=".03072"/><path stroke="#f6ac33" d="M145.47 412.29h1.666l-.833-1.442z" stroke-width=".03072"/><path stroke="#f7c13a" d="M146.303 413.735h1.667l-.834-1.444z" stroke-width=".03072"/><path stroke="#f8cb4b" d="M145.47 415.18h1.666l-.833-1.445z" stroke-width=".03072"/><path stroke="#f7be38" d="M146.303 416.623h1.667l-.834-1.444z" stroke-width=".03072"/><path stroke="#f6a02c" d="M145.47 418.066h1.666l-.833-1.443z" stroke-width=".03072"/><path stroke="#f6a332" d="M146.303 419.51h1.667l-.834-1.444z" stroke-width=".03072"/><path stroke="#f7bf39" d="M145.47 420.954h1.666l-.833-1.444z" stroke-width=".03072"/><path stroke="#f7b645" d="M146.303 422.397h1.667l-.834-1.443z" stroke-width=".03072"/><path d="M147.136 365.372"/><path stroke="#c2372f" d="M147.136 366.094h1.667l-.833 1.443z" stroke-width=".03072"/><path stroke="#d13d2f" d="M146.303 367.537h1.667l-.834 1.444z" stroke-width=".03072"/><path stroke="#be342c" d="M147.136 368.98h1.667l-.833 1.445z" stroke-width=".03072"/><path stroke="#dc4331" d="M146.303 370.425h1.667l-.834 1.443z" stroke-width=".03072"/><path stroke="#db4331" d="M147.136 371.868h1.667l-.833 1.444z" stroke-width=".03072"/><path stroke="#d94233" d="M146.303 373.312h1.667l-.834 1.444z" stroke-width=".03072"/><path stroke="#da4231" d="M147.136 374.756h1.667l-.833 1.443z" stroke-width=".03072"/><path stroke="#c93a2f" d="M146.303 376.2h1.667l-.834 1.443z" stroke-width=".03072"/><path stroke="#d74438" d="M147.136 377.643h1.667l-.833 1.444z" stroke-width=".03072"/><path d="M147.136 379.81"/><path stroke="#5d83c2" stroke-opacity=".47" d="M147.58 380.915h.78l-.39.674z" stroke-width=".03072"/><path stroke="#4e81c0" d="M146.303 381.974h1.667l-.834 1.444z" stroke-width=".03072"/><path stroke="#3a69af" d="M147.136 383.418h1.667l-.833 1.443z" stroke-width=".03072"/><path stroke="#4077b8" d="M146.303 384.86h1.667l-.834 1.445z" stroke-width=".03072"/><path stroke="#3c73b6" d="M147.136 386.305h1.667l-.833 1.444z" stroke-width=".03072"/><path stroke="#3c6eb2" d="M146.303 387.75h1.667l-.834 1.443z" stroke-width=".03072"/><path stroke="#477bbc" d="M147.136 389.193h1.667l-.833 1.443z" stroke-width=".03072"/><path stroke="#306aaf" d="M146.303 390.636h1.667l-.834 1.444z" stroke-width=".03072"/><path stroke="#3067ad" d="M147.136 392.08h1.667l-.833 1.444z" stroke-width=".03072"/><path stroke="#577fbf" d="M146.303 393.524h1.667l-.834 1.443z" stroke-width=".03072"/><path stroke="#3e79ba" d="M147.136 394.967h1.667l-.833 1.444z" stroke-width=".03072"/><path stroke="#2fac61" d="M146.303 396.41h1.667l-.834 1.445z" stroke-width=".03072"/><path stroke="#118a4b" d="M147.136 397.855h1.667l-.833 1.443z" stroke-width=".03072"/><path stroke="#138244" d="M146.303 399.298h1.667l-.834 1.444z" stroke-width=".03072"/><path stroke="#1a8849" d="M147.136 400.742h1.667l-.833 1.444z" stroke-width=".03072"/><path stroke="#2baa60" d="M146.303 402.186h1.667l-.834 1.443z" stroke-width=".03072"/><path stroke="#139f5a" d="M147.136 403.63h1.667l-.833 1.443z" stroke-width=".03072"/><path stroke="#129351" d="M146.303 405.073h1.667l-.834 1.444z" stroke-width=".03072"/><path stroke="#149f5a" stroke-opacity=".47" d="M147.58 406.902h.78l-.39.674z" stroke-width=".03072"/><path stroke="#f69a2a" stroke-opacity=".89" d="M146.398 408.042h1.477l-.74 1.28z" stroke-width=".03072"/><path stroke="#f7c943" d="M147.136 409.404h1.667l-.833 1.444z" stroke-width=".03072"/><path stroke="#fadb64" d="M146.303 410.848h1.667l-.834 1.443z" stroke-width=".03072"/><path stroke="#f7bf39" d="M147.136 412.29h1.667l-.833 1.445z" stroke-width=".03072"/><path stroke="#f6a332" d="M146.303 413.735h1.667l-.834 1.444z" stroke-width=".03072"/><path stroke="#f9cc5f" d="M147.136 415.18h1.667l-.833 1.443z" stroke-width=".03072"/><path stroke="#f6a230" d="M146.303 416.623h1.667l-.834 1.443z" stroke-width=".03072"/><path stroke="#f7ae40" d="M147.136 418.066h1.667l-.833 1.444z" stroke-width=".03072"/><path stroke="#f8cd4b" d="M146.303 419.51h1.667l-.834 1.444z" stroke-width=".03072"/><path stroke="#f7b645" d="M147.136 420.954h1.667l-.833 1.443z" stroke-width=".03072"/><path d="M148.803 363.928"/><path stroke="#d33c2f" stroke-opacity=".85" d="M147.264 365.983h1.412l-.706-1.223z" stroke-width=".03072"/><path stroke="#cb3d33" d="M147.97 367.537h1.667l-.834-1.443z" stroke-width=".03072"/><path stroke="#d54031" d="M147.136 368.98h1.667l-.833-1.443z" stroke-width=".03072"/><path stroke="#be342c" d="M147.97 370.425h1.667l-.834-1.444z" stroke-width=".03072"/><path stroke="#d94231" d="M147.136 371.868h1.667l-.833-1.443z" stroke-width=".03072"/><path stroke="#e24632" d="M147.97 373.312h1.667l-.834-1.444z" stroke-width=".03072"/><path stroke="#e24632" d="M147.136 374.756h1.667l-.833-1.444z" stroke-width=".03072"/><path stroke="#dd4332" d="M147.97 376.2h1.667l-.834-1.444z" stroke-width=".03072"/><path stroke="#c93b32" d="M147.136 377.643h1.667l-.833-1.444z" stroke-width=".03072"/><path stroke="#5e81bf" d="M147.97 379.087h1.667l-.834-1.444z" stroke-width=".03072"/><path d="M148.803 381.252"/><path stroke="#4a75b7" d="M147.136 383.418h1.667l-.833-1.444z" stroke-width=".03072"/><path stroke="#3868ad" d="M147.97 384.86h1.667l-.834-1.442z" stroke-width=".03072"/><path stroke="#3e74b7" d="M147.136 386.305h1.667l-.833-1.444z" stroke-width=".03072"/><path stroke="#3c73b6" d="M147.97 387.75h1.667l-.834-1.445z" stroke-width=".03072"/><path stroke="#4373b7" d="M147.136 389.193h1.667l-.833-1.444z" stroke-width=".03072"/><path stroke="#4174b7" d="M147.97 390.636h1.667l-.834-1.443z" stroke-width=".03072"/><path stroke="#3e74b7" d="M147.136 392.08h1.667l-.833-1.444z" stroke-width=".03072"/><path stroke="#306aaf" d="M147.97 393.524h1.667l-.834-1.444z" stroke-width=".03072"/><path stroke="#467abb" d="M147.136 394.967h1.667l-.833-1.443z" stroke-width=".03072"/><path stroke="#4886c4" d="M147.97 396.41h1.667l-.834-1.443z" stroke-width=".03072"/><path stroke="#149f5a" d="M147.136 397.855h1.667l-.833-1.444zM147.97 399.298h1.667l-.834-1.443z" stroke-width=".03072"/><path stroke="#158748" d="M147.136 400.742h1.667l-.833-1.444z" stroke-width=".03072"/><path stroke="#2baa60" d="M147.97 402.186h1.667l-.834-1.444z" stroke-width=".03072"/><path stroke="#299e57" d="M147.136 403.63h1.667l-.833-1.444z" stroke-width=".03072"/><path stroke="#10743b" stroke-opacity=".47" d="M148.414 404.688h.778l-.39-.674zM147.58 406.132h.78l-.39-.674z" stroke-width=".03072"/><path stroke="#f8c948" d="M147.97 407.96h1.667l-.834-1.443z" stroke-width=".03072"/><path stroke="#f7c943" d="M147.136 409.404h1.667l-.833-1.444z" stroke-width=".03072"/><path stroke="#f8b949" d="M147.97 410.848h1.667l-.834-1.444z" stroke-width=".03072"/><path stroke="#fadb65" d="M147.136 412.29h1.667l-.833-1.442z" stroke-width=".03072"/><path stroke="#f6ae37" d="M147.97 413.735h1.667l-.834-1.444z" stroke-width=".03072"/><path stroke="#f7b434" d="M147.136 415.18h1.667l-.833-1.445z" stroke-width=".03072"/><path stroke="#f6ae37" d="M147.97 416.623h1.667l-.834-1.444z" stroke-width=".03072"/><path stroke="#f69e2e" d="M147.136 418.066h1.667l-.833-1.443z" stroke-width=".03072"/><path stroke="#f6a831" d="M147.97 419.51h1.667l-.834-1.444z" stroke-width=".03072"/><path stroke="#f7c23c" d="M147.136 420.954h1.667l-.833-1.444z" stroke-width=".03072"/><path d="M149.637 366.815"/><path stroke="#e2493a" d="M147.97 367.537h1.667l-.834 1.444z" stroke-width=".03072"/><path stroke="#c0362e" d="M148.803 368.98h1.667l-.833 1.445z" stroke-width=".03072"/><path stroke="#de4332" d="M147.97 370.425h1.667l-.834 1.443z" stroke-width=".03072"/><path stroke="#be332b" d="M148.803 371.868h1.667l-.833 1.444z" stroke-width=".03072"/><path stroke="#e44633" d="M147.97 373.312h1.667l-.834 1.444z" stroke-width=".03072"/><path stroke="#cc3b2e" d="M148.803 374.756h1.667l-.833 1.443z" stroke-width=".03072"/><path stroke="#bb332c" d="M147.97 376.2h1.667l-.834 1.443z" stroke-width=".03072"/><path stroke="#c0362f" d="M148.803 377.643h1.667l-.833 1.444z" stroke-width=".03072"/><path stroke="#df4535" d="M147.97 379.087h1.667l-.834 1.443z" stroke-width=".03072"/><path stroke="#d84135" d="M148.803 380.53h1.667l-.833 1.444z" stroke-width=".03072"/><path d="M148.803 382.696"/><path stroke="#5d83c2" stroke-opacity=".47" d="M149.248 383.803h.778l-.39.674z" stroke-width=".03072"/><path stroke="#3b6baf" d="M147.97 384.86h1.667l-.834 1.445z" stroke-width=".03072"/><path stroke="#3868ad" d="M148.803 386.305h1.667l-.833 1.444z" stroke-width=".03072"/><path stroke="#3876b8" d="M147.97 387.75h1.667l-.834 1.443z" stroke-width=".03072"/><path stroke="#3276b7" d="M148.803 389.193h1.667l-.833 1.443z" stroke-width=".03072"/><path stroke="#4074b7" d="M147.97 390.636h1.667l-.834 1.444z" stroke-width=".03072"/><path stroke="#285ea6" d="M148.803 392.08h1.667l-.833 1.444z" stroke-width=".03072"/><path stroke="#3e79ba" d="M147.97 393.524h1.667l-.834 1.443z" stroke-width=".03072"/><path stroke="#457ebe" d="M148.803 394.967h1.667l-.833 1.444z" stroke-width=".03072"/><path stroke="#418cc8" d="M147.97 396.41h1.667l-.834 1.445z" stroke-width=".03072"/><path stroke="#3b80bf" d="M148.803 397.855h1.667l-.833 1.443z" stroke-width=".03072"/><path stroke="#21a55d" d="M147.97 399.298h1.667l-.834 1.444z" stroke-width=".03072"/><path stroke="#189e57" d="M148.803 400.742h1.667l-.833 1.444z" stroke-width=".03072"/><path stroke="#2baa60" d="M147.97 402.186h1.667l-.834 1.443z" stroke-width=".03072"/><path stroke="#149f5a" stroke-opacity=".71" d="M149.042 403.836h1.19l-.595 1.03z" stroke-width=".03072"/><path d="M148.803 405.795"/><path stroke="#f7c43f" d="M148.803 406.517h1.667l-.833 1.443z" stroke-width=".03072"/><path stroke="#f7c23b" d="M147.97 407.96h1.667l-.834 1.444z" stroke-width=".03072"/><path stroke="#f6a830" d="M148.803 409.404h1.667l-.833 1.444z" stroke-width=".03072"/><path stroke="#f69d2d" d="M147.97 410.848h1.667l-.834 1.443z" stroke-width=".03072"/><path stroke="#f6ae37" d="M148.803 412.29h1.667l-.833 1.445z" stroke-width=".03072"/><path stroke="#f6a830" d="M147.97 413.735h1.667l-.834 1.444z" stroke-width=".03072"/><path stroke="#f6a82f" d="M148.803 415.18h1.667l-.833 1.443z" stroke-width=".03072"/><path stroke="#f6a230" d="M147.97 416.623h1.667l-.834 1.443z" stroke-width=".03072"/><path stroke="#f6a52e" d="M148.803 418.066h1.667l-.833 1.444z" stroke-width=".03072"/><path stroke="#f7b442" d="M147.97 419.51h1.667l-.834 1.444z" stroke-width=".03072"/><path d="M148.803 423.12"/><path stroke="#f7c841" stroke-opacity=".76" d="M149 424.01h1.274l-.637 1.105z" stroke-width=".03072"/><path d="M150.47 366.815"/><path stroke="#c93b33" d="M148.803 368.98h1.667l-.833-1.443z" stroke-width=".03072"/><path stroke="#db4332" d="M149.637 370.425h1.667l-.834-1.444z" stroke-width=".03072"/><path stroke="#e24633" d="M148.803 371.868h1.667l-.833-1.443z" stroke-width=".03072"/><path stroke="#b9312b" d="M149.637 373.312h1.667l-.834-1.444z" stroke-width=".03072"/><path stroke="#c0352e" d="M148.803 374.756h1.667l-.833-1.444z" stroke-width=".03072"/><path stroke="#cc3b2e" d="M149.637 376.2h1.667l-.834-1.444z" stroke-width=".03072"/><path stroke="#b8302a" d="M148.803 377.643h1.667l-.833-1.444z" stroke-width=".03072"/><path stroke="#cf3d30" d="M149.637 379.087h1.667l-.834-1.444z" stroke-width=".03072"/><path stroke="#e04535" d="M148.803 380.53h1.667l-.833-1.443z" stroke-width=".03072"/><path stroke="#c93930" d="M149.637 381.974h1.667l-.834-1.444z" stroke-width=".03072"/><path d="M150.47 384.14"/><path stroke="#3a69af" d="M148.803 386.305h1.667l-.833-1.444z" stroke-width=".03072"/><path stroke="#2d60a7" d="M149.637 387.75h1.667l-.834-1.445z" stroke-width=".03072"/><path stroke="#4f93ce" d="M148.803 389.193h1.667l-.833-1.444z" stroke-width=".03072"/><path stroke="#3a70b4" d="M149.637 390.636h1.667l-.834-1.443z" stroke-width=".03072"/><path stroke="#3b6db2" d="M148.803 392.08h1.667l-.833-1.444z" stroke-width=".03072"/><path stroke="#336fb2" d="M149.637 393.524h1.667l-.834-1.444z" stroke-width=".03072"/><path stroke="#3b7fbe" d="M148.803 394.967h1.667l-.833-1.443z" stroke-width=".03072"/><path stroke="#3e6eb3" d="M149.637 396.41h1.667l-.834-1.443z" stroke-width=".03072"/><path stroke="#3b80bf" d="M148.803 397.855h1.667l-.833-1.444zM149.637 399.298h1.667l-.834-1.443z" stroke-width=".03072"/><path stroke="#21a55d" d="M148.803 400.742h1.667l-.833-1.444z" stroke-width=".03072"/><path d="M149.637 402.908"/><path stroke="#f7b23e" d="M149.637 405.073h1.667l-.834-1.444z" stroke-width=".03072"/><path stroke="#f6b039" d="M148.803 406.517h1.667l-.833-1.444z" stroke-width=".03072"/><path stroke="#f69e2c" d="M149.637 407.96h1.667l-.834-1.443z" stroke-width=".03072"/><path stroke="#f6a830" d="M148.803 409.404h1.667l-.833-1.444z" stroke-width=".03072"/><path stroke="#fadb65" d="M149.637 410.848h1.667l-.834-1.444z" stroke-width=".03072"/><path stroke="#f6ae37" d="M148.803 412.29h1.667l-.833-1.442z" stroke-width=".03072"/><path stroke="#f6aa30" d="M149.637 413.735h1.667l-.834-1.444z" stroke-width=".03072"/><path stroke="#f6a830" d="M148.803 415.18h1.667l-.833-1.445z" stroke-width=".03072"/><path stroke="#f6a333" d="M149.637 416.623h1.667l-.834-1.444z" stroke-width=".03072"/><path stroke="#f69d2c" d="M148.803 418.066h1.667l-.833-1.443z" stroke-width=".03072"/><path d="M149.637 423.12"/><path stroke="#f7c841" stroke-opacity=".52" d="M150.04 424.936h.862l-.432-.747z" stroke-width=".03072"/><path d="M151.304 369.703"/><path stroke="#db4331" d="M149.637 370.425h1.667l-.834 1.443z" stroke-width=".03072"/><path stroke="#c2362e" d="M150.47 371.868h1.667l-.833 1.444z" stroke-width=".03072"/><path stroke="#b8312b" d="M149.637 373.312h1.667l-.834 1.444z" stroke-width=".03072"/><path stroke="#bd332b" d="M150.47 374.756h1.667l-.833 1.443z" stroke-width=".03072"/><path stroke="#c3362c" d="M149.637 376.2h1.667l-.834 1.443z" stroke-width=".03072"/><path stroke="#cd3b2e" d="M150.47 377.643h1.667l-.833 1.444z" stroke-width=".03072"/><path stroke="#d43" d="M149.637 379.087h1.667l-.834 1.443z" stroke-width=".03072"/><path stroke="#c83930" d="M150.47 380.53h1.667l-.833 1.444z" stroke-width=".03072"/><path stroke="#c0362f" d="M149.637 381.974h1.667l-.834 1.444z" stroke-width=".03072"/><path stroke="#cb3d33" d="M150.47 383.418h1.667l-.833 1.443z" stroke-width=".03072"/><path d="M151.304 387.027"/><path stroke="#3e71b4" d="M149.637 387.75h1.667l-.834 1.443z" stroke-width=".03072"/><path stroke="#406eb2" d="M150.47 389.193h1.667l-.833 1.443z" stroke-width=".03072"/><path stroke="#3c76b8" d="M149.637 390.636h1.667l-.834 1.444z" stroke-width=".03072"/><path stroke="#3276b7" d="M150.47 392.08h1.667l-.833 1.444z" stroke-width=".03072"/><path stroke="#316db1" d="M149.637 393.524h1.667l-.834 1.443z" stroke-width=".03072"/><path stroke="#2258a1" d="M150.47 394.967h1.667l-.833 1.444z" stroke-width=".03072"/><path stroke="#3668ae" d="M149.637 396.41h1.667l-.834 1.445z" stroke-width=".03072"/><path stroke="#235ba4" d="M150.47 397.855h1.667l-.833 1.443z" stroke-width=".03072"/><path stroke="#4370b3" d="M149.637 399.298h1.667l-.834 1.444z" stroke-width=".03072"/><path stroke="#306aaf" d="M150.47 400.742h1.667l-.833 1.444z" stroke-width=".03072"/><path d="M150.47 402.908"/><path stroke="#f7c841" d="M150.47 403.63h1.667l-.833 1.443z" stroke-width=".03072"/><path stroke="#f6a332" d="M149.637 405.073h1.667l-.834 1.444z" stroke-width=".03072"/><path stroke="#f7b645" d="M150.47 406.517h1.667l-.833 1.443z" stroke-width=".03072"/><path stroke="#f6a42e" d="M149.637 407.96h1.667l-.834 1.444z" stroke-width=".03072"/><path stroke="#f6a12f" d="M150.47 409.404h1.667l-.833 1.444z" stroke-width=".03072"/><path stroke="#fadb65" d="M149.637 410.848h1.667l-.834 1.443z" stroke-width=".03072"/><path stroke="#f7b140" d="M150.47 412.29h1.667l-.833 1.445z" stroke-width=".03072"/><path stroke="#f6aa30" d="M149.637 413.735h1.667l-.834 1.444z" stroke-width=".03072"/><path stroke="#f69d2c" d="M150.47 415.18h1.667l-.833 1.443z" stroke-width=".03072"/><path stroke="#f6a536" d="M149.637 416.623h1.667l-.834 1.443z" stroke-width=".03072"/><path d="M151.304 424.563"/><path stroke="#f69a2a" stroke-opacity=".52" d="M150.04 425.633h.862l-.432.747z" stroke-width=".03072"/><path d="M152.137 369.703"/><path stroke="#c2362e" d="M150.47 371.868h1.667l-.833-1.443z" stroke-width=".03072"/><path stroke="#c1362e" d="M151.304 373.312h1.667l-.833-1.444z" stroke-width=".03072"/><path stroke="#bb332c" d="M150.47 374.756h1.667l-.833-1.444z" stroke-width=".03072"/><path stroke="#ce3d31" d="M151.304 376.2h1.667l-.833-1.444z" stroke-width=".03072"/><path stroke="#c6382d" d="M150.47 377.643h1.667l-.833-1.444z" stroke-width=".03072"/><path stroke="#cd3b2e" d="M151.304 379.087h1.667l-.833-1.444z" stroke-width=".03072"/><path stroke="#d43" d="M150.47 380.53h1.667l-.833-1.443z" stroke-width=".03072"/><path stroke="#c83930" d="M151.304 381.974h1.667l-.833-1.444z" stroke-width=".03072"/><path stroke="#c93b33" d="M150.47 383.418h1.667l-.833-1.444z" stroke-width=".03072"/><path stroke="#db463a" d="M151.304 384.86h1.667l-.833-1.442z" stroke-width=".03072"/><path stroke="#5d83c2" stroke-opacity=".47" d="M150.915 385.92h.778l-.39-.674z" stroke-width=".03072"/><path d="M152.137 387.027"/><path stroke="#4b7ebf" d="M150.47 389.193h1.667l-.833-1.444z" stroke-width=".03072"/><path stroke="#3e79ba" d="M151.304 390.636h1.667l-.833-1.443z" stroke-width=".03072"/><path stroke="#337dbd" d="M150.47 392.08h1.667l-.833-1.444z" stroke-width=".03072"/><path stroke="#2861a8" d="M151.304 393.524h1.667l-.833-1.444z" stroke-width=".03072"/><path stroke="#205da4" d="M150.47 394.967h1.667l-.833-1.443z" stroke-width=".03072"/><path stroke="#2f66ac" d="M151.304 396.41h1.667l-.833-1.443z" stroke-width=".03072"/><path stroke="#3065ac" d="M150.47 397.855h1.667l-.833-1.444z" stroke-width=".03072"/><path stroke="#235ba4" d="M151.304 399.298h1.667l-.833-1.443z" stroke-width=".03072"/><path stroke="#3365aa" d="M150.47 400.742h1.667l-.833-1.444z" stroke-width=".03072"/><path stroke="#306aaf" d="M151.304 402.186h1.667l-.833-1.444z" stroke-width=".03072"/><path stroke="#f7c841" d="M150.47 403.63h1.667l-.833-1.444z" stroke-width=".03072"/><path stroke="#f6a12d" d="M151.304 405.073h1.667l-.833-1.444z" stroke-width=".03072"/><path stroke="#f6b039" d="M150.47 406.517h1.667l-.833-1.444z" stroke-width=".03072"/><path stroke="#f6a332" d="M151.304 407.96h1.667l-.833-1.443z" stroke-width=".03072"/><path stroke="#f69f2c" d="M150.47 409.404h1.667l-.833-1.444z" stroke-width=".03072"/><path stroke="#f6a42e" d="M151.304 410.848h1.667l-.833-1.444z" stroke-width=".03072"/><path stroke="#f6ad36" d="M150.47 412.29h1.667l-.833-1.442z" stroke-width=".03072"/><path stroke="#f7b142" d="M151.304 413.735h1.667l-.833-1.444z" stroke-width=".03072"/><path stroke="#f6a230" d="M150.47 415.18h1.667l-.833-1.445z" stroke-width=".03072"/><path d="M152.137 424.563"/><path stroke="#f7c841" stroke-opacity=".52" d="M150.872 426.38h.863l-.43-.747z" stroke-width=".03072"/><path d="M152.97 372.59"/><path stroke="#ca3b32" d="M151.304 373.312h1.667l-.833 1.444z" stroke-width=".03072"/><path stroke="#ce3d31" d="M152.137 374.756h1.667l-.833 1.443z" stroke-width=".03072"/><path stroke="#d74438" d="M151.304 376.2h1.667l-.833 1.443z" stroke-width=".03072"/><path stroke="#d23e31" d="M152.137 377.643h1.667l-.833 1.444z" stroke-width=".03072"/><path stroke="#cb3b31" d="M151.304 379.087h1.667l-.833 1.443z" stroke-width=".03072"/><path stroke="#c7382e" d="M152.137 380.53h1.667l-.833 1.444z" stroke-width=".03072"/><path stroke="#c0352d" d="M151.304 381.974h1.667l-.833 1.444z" stroke-width=".03072"/><path stroke="#cb3b31" d="M152.137 383.418h1.667l-.833 1.443z" stroke-width=".03072"/><path stroke="#cb3e35" d="M151.304 384.86h1.667l-.833 1.445z" stroke-width=".03072"/><path stroke="#ca3b32" d="M152.137 386.305h1.667l-.833 1.444z" stroke-width=".03072"/><path d="M152.137 388.47"/><path stroke="#5d83c2" stroke-opacity=".47" d="M152.582 389.577h.778l-.39.674z" stroke-width=".03072"/><path stroke="#2d70b3" d="M151.304 390.636h1.667l-.833 1.444z" stroke-width=".03072"/><path stroke="#4f9bd4" d="M152.137 392.08h1.667l-.833 1.444z" stroke-width=".03072"/><path stroke="#2057a0" d="M151.304 393.524h1.667l-.833 1.443z" stroke-width=".03072"/><path stroke="#285ea6" d="M152.137 394.967h1.667l-.833 1.444z" stroke-width=".03072"/><path stroke="#2e63aa" d="M151.304 396.41h1.667l-.833 1.445z" stroke-width=".03072"/><path stroke="#366cb0" d="M152.137 397.855h1.667l-.833 1.443z" stroke-width=".03072"/><path stroke="#3276b7" d="M151.304 399.298h1.667l-.833 1.444z" stroke-width=".03072"/><path stroke="#3e71b4" d="M152.137 400.742h1.667l-.833 1.444z" stroke-width=".03072"/><path stroke="#5d83c2" d="M151.304 402.186h1.667l-.833 1.443z" stroke-width=".03072"/><path stroke="#5981c0" d="M152.137 403.63h1.667l-.833 1.443z" stroke-width=".03072"/><path stroke="#f7c841" d="M151.304 405.073h1.667l-.833 1.444z" stroke-width=".03072"/><path stroke="#f6b039" d="M152.137 406.517h1.667l-.833 1.443z" stroke-width=".03072"/><path stroke="#f69f2c" d="M151.304 407.96h1.667l-.833 1.444z" stroke-width=".03072"/><path stroke="#f6b039" d="M152.137 409.404h1.667l-.833 1.444z" stroke-width=".03072"/><path stroke="#f6a82f" d="M151.304 410.848h1.667l-.833 1.443z" stroke-width=".03072"/><path stroke="#f7bd3c" d="M152.137 412.29h1.667l-.833 1.445z" stroke-width=".03072"/><path stroke="#f7b645" d="M151.304 413.735h1.667l-.833 1.444z" stroke-width=".03072"/><path d="M152.97 418.788"/><path stroke="#f7c841" stroke-opacity=".52" d="M151.706 419.858h.863l-.433.747z" stroke-width=".03072"/><path d="M153.804 372.59"/><path stroke="#d84439" d="M152.137 374.756h1.667l-.833-1.444z" stroke-width=".03072"/><path stroke="#cf3d30" d="M152.97 376.2h1.668l-.834-1.444z" stroke-width=".03072"/><path stroke="#ce3d31" d="M152.137 377.643h1.667l-.833-1.444z" stroke-width=".03072"/><path stroke="#d23f32" d="M152.97 379.087h1.668l-.834-1.444z" stroke-width=".03072"/><path stroke="#c93a31" d="M152.137 380.53h1.667l-.833-1.443z" stroke-width=".03072"/><path stroke="#c7382e" d="M152.97 381.974h1.668l-.834-1.444z" stroke-width=".03072"/><path stroke="#c1352d" d="M152.137 383.418h1.667l-.833-1.444z" stroke-width=".03072"/><path stroke="#dd4332" d="M152.97 384.86h1.668l-.834-1.442z" stroke-width=".03072"/><path stroke="#cb3e35" d="M152.137 386.305h1.667l-.833-1.444z" stroke-width=".03072"/><path stroke="#d84233" d="M152.97 387.75h1.668l-.834-1.445z" stroke-width=".03072"/><path d="M153.804 389.914"/><path stroke="#3b7fbe" d="M152.137 392.08h1.667l-.833-1.444z" stroke-width=".03072"/><path stroke="#4f9bd4" d="M152.97 393.524h1.668l-.834-1.444z" stroke-width=".03072"/><path stroke="#3163aa" d="M152.137 394.967h1.667l-.833-1.443z" stroke-width=".03072"/><path stroke="#2a64aa" d="M152.97 396.41h1.668l-.834-1.443z" stroke-width=".03072"/><path stroke="#3c6eb2" d="M152.137 397.855h1.667l-.833-1.444z" stroke-width=".03072"/><path stroke="#3669af" d="M152.97 399.298h1.668l-.834-1.443z" stroke-width=".03072"/><path stroke="#3672b5" d="M152.137 400.742h1.667l-.833-1.444z" stroke-width=".03072"/><path stroke="#3e70b3" d="M152.97 402.186h1.668l-.834-1.444z" stroke-width=".03072"/><path stroke="#3868ad" d="M152.137 403.63h1.667l-.833-1.444z" stroke-width=".03072"/><path stroke="#467abb" d="M152.97 405.073h1.668l-.834-1.444z" stroke-width=".03072"/><path stroke="#f7c841" d="M152.137 406.517h1.667l-.833-1.444z" stroke-width=".03072"/><path stroke="#f8d151" d="M152.97 407.96h1.668l-.834-1.443z" stroke-width=".03072"/><path stroke="#f6a730" d="M152.137 409.404h1.667l-.833-1.444z" stroke-width=".03072"/><path stroke="#f6b039" d="M152.97 410.848h1.668l-.834-1.444z" stroke-width=".03072"/><path stroke="#f6a831" d="M152.137 412.29h1.667l-.833-1.442z" stroke-width=".03072"/><path d="M153.804 418.788"/><path stroke="#f69a2a" stroke-opacity=".89" d="M152.232 420.872h1.477l-.74-1.28z" stroke-width=".03072"/><path d="M154.638 375.478"/><path stroke="#c6382d" d="M152.97 376.2h1.668l-.834 1.443z" stroke-width=".03072"/><path stroke="#c4372d" d="M153.804 377.643h1.667l-.832 1.444z" stroke-width=".03072"/><path stroke="#c93b32" d="M152.97 379.087h1.668l-.834 1.443z" stroke-width=".03072"/><path stroke="#c93b33" d="M153.804 380.53h1.667l-.832 1.444z" stroke-width=".03072"/><path stroke="#c4372d" d="M152.97 381.974h1.668l-.834 1.444z" stroke-width=".03072"/><path stroke="#d94131" d="M153.804 383.418h1.667l-.832 1.443z" stroke-width=".03072"/><path stroke="#e04634" d="M152.97 384.86h1.668l-.834 1.445z" stroke-width=".03072"/><path stroke="#e64834" d="M153.804 386.305h1.667l-.832 1.444z" stroke-width=".03072"/><path stroke="#d84439" d="M152.97 387.75h1.668l-.834 1.443z" stroke-width=".03072"/><path stroke="#d94335" d="M153.804 389.193h1.667l-.832 1.443z" stroke-width=".03072"/><path stroke="#b02828" stroke-opacity=".47" d="M153.415 391.02h.778l-.39.675z" stroke-width=".03072"/><path d="M154.638 392.802"/><path stroke="#518fcb" d="M152.97 393.524h1.668l-.834 1.443z" stroke-width=".03072"/><path stroke="#3264aa" d="M153.804 394.967h1.667l-.832 1.444z" stroke-width=".03072"/><path stroke="#4578ba" d="M152.97 396.41h1.668l-.834 1.445z" stroke-width=".03072"/><path stroke="#4e88c6" d="M153.804 397.855h1.667l-.832 1.443z" stroke-width=".03072"/><path stroke="#386aaf" d="M152.97 399.298h1.668l-.834 1.444z" stroke-width=".03072"/><path stroke="#4e7abb" d="M153.804 400.742h1.667l-.832 1.444z" stroke-width=".03072"/><path stroke="#3368ad" d="M152.97 402.186h1.668l-.834 1.443z" stroke-width=".03072"/><path stroke="#235ba4" d="M153.804 403.63h1.667l-.832 1.443z" stroke-width=".03072"/><path stroke="#f4992a" d="M152.97 405.073h1.668l-.834 1.444z" stroke-width=".03072"/><path stroke="#ada67e" d="M153.804 406.517h1.667l-.832 1.443z" stroke-width=".03072"/><path stroke="#f8d151" d="M152.97 407.96h1.668l-.834 1.444zM153.804 409.404h1.667l-.832 1.444zM152.97 410.848h1.668l-.834 1.443z" stroke-width=".03072"/><path d="M154.638 413.013"/><path stroke="#f6b135" stroke-opacity=".89" d="M153.066 413.817h1.477l-.74 1.28z" stroke-width=".03072"/><path d="M154.638 374.034"/><path stroke="#f34d36" stroke-opacity=".85" d="M154.765 376.09h1.413l-.707-1.224z" stroke-width=".03072"/><path stroke="#c6382d" d="M153.804 377.643h1.667l-.832-1.444z" stroke-width=".03072"/><path stroke="#c5382f" d="M154.638 379.087h1.667l-.834-1.444z" stroke-width=".03072"/><path stroke="#c93a31" d="M153.804 380.53h1.667l-.832-1.443z" stroke-width=".03072"/><path stroke="#d23e31" d="M154.638 381.974h1.667l-.834-1.444z" stroke-width=".03072"/><path stroke="#d84131" d="M153.804 383.418h1.667l-.832-1.444z" stroke-width=".03072"/><path stroke="#da4231" d="M154.638 384.86h1.667l-.834-1.442z" stroke-width=".03072"/><path stroke="#e14634" d="M153.804 386.305h1.667l-.832-1.444zM154.638 387.75h1.667l-.834-1.445z" stroke-width=".03072"/><path stroke="#d74234" d="M153.804 389.193h1.667l-.832-1.444z" stroke-width=".03072"/><path stroke="#cb3e35" d="M154.638 390.636h1.667l-.834-1.443z" stroke-width=".03072"/><path d="M155.47 392.802"/><path stroke="#518fcb" d="M153.804 394.967h1.667l-.832-1.443z" stroke-width=".03072"/><path stroke="#3e74b7" d="M154.638 396.41h1.667l-.834-1.443z" stroke-width=".03072"/><path stroke="#4381c0" d="M153.804 397.855h1.667l-.832-1.444z" stroke-width=".03072"/><path stroke="#4b93ce" d="M154.638 399.298h1.667l-.834-1.443z" stroke-width=".03072"/><path stroke="#3869af" d="M153.804 400.742h1.667l-.832-1.444z" stroke-width=".03072"/><path stroke="#4674b8" d="M154.638 402.186h1.667l-.834-1.444z" stroke-width=".03072"/><path stroke="#3067ad" d="M153.804 403.63h1.667l-.832-1.444z" stroke-width=".03072"/><path stroke="#306aaf" d="M154.638 405.073h1.667l-.834-1.444z" stroke-width=".03072"/><path stroke="#467abb" d="M153.804 406.517h1.667l-.832-1.444z" stroke-width=".03072"/><path stroke="#5d83c2" d="M154.638 407.96h1.667l-.834-1.443z" stroke-width=".03072"/><path stroke="#f8d151" d="M153.804 409.404h1.667l-.832-1.444z" stroke-width=".03072"/><path stroke="#5c83c1" stroke-opacity=".99" d="M154.644 410.842h1.654l-.827-1.432z" stroke-width=".03072"/><path d="M154.638 414.457"/><path stroke="#f69a2a" stroke-opacity=".95" d="M154.684 416.583h1.575l-.79-1.365z" stroke-width=".03072"/><path d="M156.305 378.365"/><path stroke="#e04737" d="M154.638 379.087h1.667l-.834 1.443z" stroke-width=".03072"/><path stroke="#cb3e35" d="M155.47 380.53h1.668l-.833 1.444z" stroke-width=".03072"/><path stroke="#d23e30" d="M154.638 381.974h1.667l-.834 1.444z" stroke-width=".03072"/><path stroke="#ca3b30" d="M155.47 383.418h1.668l-.833 1.443z" stroke-width=".03072"/><path stroke="#cd3b2e" d="M154.638 384.86h1.667l-.834 1.445z" stroke-width=".03072"/><path stroke="#d13d30" d="M155.47 386.305h1.668l-.833 1.444z" stroke-width=".03072"/><path stroke="#dd4332" d="M154.638 387.75h1.667l-.834 1.443z" stroke-width=".03072"/><path stroke="#d23e31" d="M155.47 389.193h1.668l-.833 1.443z" stroke-width=".03072"/><path stroke="#d94335" d="M154.638 390.636h1.667l-.834 1.444z" stroke-width=".03072"/><path stroke="#e24838" d="M155.47 392.08h1.668l-.833 1.444z" stroke-width=".03072"/><path stroke="#f34e37" stroke-opacity=".47" d="M155.082 393.908h.778l-.39.674zM155.916 395.352h.778l-.39.674z" stroke-width=".03072"/><path stroke="#ae2728" d="M154.638 396.41h1.667l-.834 1.445z" stroke-width=".03072"/><path stroke="#3672b5" d="M155.47 397.855h1.668l-.833 1.443z" stroke-width=".03072"/><path stroke="#2a71b4" d="M154.638 399.298h1.667l-.834 1.444z" stroke-width=".03072"/><path stroke="#3c70b3" d="M155.47 400.742h1.668l-.833 1.444z" stroke-width=".03072"/><path stroke="#4576b8" d="M154.638 402.186h1.667l-.834 1.443z" stroke-width=".03072"/><path stroke="#2f64aa" d="M155.47 403.63h1.668l-.833 1.443z" stroke-width=".03072"/><path stroke="#4370b3" d="M154.638 405.073h1.667l-.834 1.444z" stroke-width=".03072"/><path stroke="#f5a32f" d="M155.47 406.517h1.668l-.833 1.443z" stroke-width=".03072"/><path stroke="#ac8e72" d="M154.638 407.96h1.667l-.834 1.444z" stroke-width=".03072"/><path stroke="#3264aa" d="M155.47 409.404h1.668l-.833 1.444z" stroke-width=".03072"/><path d="M155.47 417.344"/><path stroke="#f7c841" stroke-opacity=".52" d="M155.873 418.415h.863l-.43.747z" stroke-width=".03072"/><path d="M157.138 378.365"/><path stroke="#da483d" d="M155.47 380.53h1.668l-.833-1.443z" stroke-width=".03072"/><path stroke="#cb3e35" d="M156.305 381.974h1.667l-.834-1.444z" stroke-width=".03072"/><path stroke="#c0362f" d="M155.47 383.418h1.668l-.833-1.444z" stroke-width=".03072"/><path stroke="#d43" d="M156.305 384.86h1.667l-.834-1.442z" stroke-width=".03072"/><path stroke="#cd3b2e" d="M155.47 386.305h1.668l-.833-1.444z" stroke-width=".03072"/><path stroke="#b8302a" d="M156.305 387.75h1.667l-.834-1.445z" stroke-width=".03072"/><path stroke="#d33e31" d="M155.47 389.193h1.668l-.833-1.444z" stroke-width=".03072"/><path stroke="#c0352d" d="M156.305 390.636h1.667l-.834-1.443z" stroke-width=".03072"/><path stroke="#d94334" d="M155.47 392.08h1.668l-.833-1.444z" stroke-width=".03072"/><path stroke="#e14635" d="M156.305 393.524h1.667l-.834-1.444z" stroke-width=".03072"/><path d="M156.305 394.245"/><path stroke="#d13b2f" stroke-opacity=".71" d="M156.543 396.204h1.19l-.595-1.03z" stroke-width=".03072"/><path stroke="#356baf" d="M155.47 397.855h1.668l-.833-1.444z" stroke-width=".03072"/><path stroke="#3672b5" d="M156.305 399.298h1.667l-.834-1.443z" stroke-width=".03072"/><path stroke="#4890cc" d="M155.47 400.742h1.668l-.833-1.444z" stroke-width=".03072"/><path stroke="#3a74b7" d="M156.305 402.186h1.667l-.834-1.444z" stroke-width=".03072"/><path stroke="#356aaf" d="M155.47 403.63h1.668l-.833-1.444z" stroke-width=".03072"/><path stroke="#3063aa" d="M156.305 405.073h1.667l-.834-1.444z" stroke-width=".03072"/><path stroke="#356baf" d="M155.47 406.517h1.668l-.833-1.444z" stroke-width=".03072"/><path stroke="#3c74b7" d="M156.305 407.96h1.667l-.834-1.443z" stroke-width=".03072"/><path stroke="#ac8e72" d="M155.47 409.404h1.668l-.833-1.444z" stroke-width=".03072"/><path d="M157.138 413.013"/><path stroke="#f7c841" stroke-opacity=".76" d="M155.668 415.01h1.274l-.637-1.105z" stroke-width=".03072"/><path d="M156.305 417.344"/><path stroke="#f7c841" stroke-opacity=".76" d="M156.5 419.34h1.276l-.638-1.104z" stroke-width=".03072"/><path d="M157.138 421.675"/><path stroke="#f7c841" stroke-opacity=".52" d="M155.873 423.493h.863l-.43-.747z" stroke-width=".03072"/><path d="M157.972 372.59"/><path stroke="#f34d36" stroke-opacity=".92" d="M156.373 373.372h1.53l-.765 1.324z" stroke-width=".03072"/><path d="M157.972 375.478"/><path stroke="#b02828" stroke-opacity=".47" d="M156.75 376.584h.777l-.39.674z" stroke-width=".03072"/><path d="M157.972 381.252"/><path stroke="#d84439" d="M156.305 381.974h1.667l-.834 1.444zM157.138 383.418h1.667l-.833 1.443z" stroke-width=".03072"/><path stroke="#dc4332" d="M156.305 384.86h1.667l-.834 1.445z" stroke-width=".03072"/><path stroke="#cd3b2f" d="M157.138 386.305h1.667l-.833 1.444z" stroke-width=".03072"/><path stroke="#cf3d2f" d="M156.305 387.75h1.667l-.834 1.443z" stroke-width=".03072"/><path stroke="#d54030" d="M157.138 389.193h1.667l-.833 1.443z" stroke-width=".03072"/><path stroke="#c1362e" d="M156.305 390.636h1.667l-.834 1.444z" stroke-width=".03072"/><path stroke="#bb322b" d="M157.138 392.08h1.667l-.833 1.444z" stroke-width=".03072"/><path stroke="#e14635" d="M156.305 393.524h1.667l-.834 1.443zM157.138 394.967h1.667l-.833 1.444z" stroke-width=".03072"/><path stroke="#a7687c" stroke-opacity=".71" d="M156.543 396.618h1.19l-.595 1.03zM157.377 398.06h1.19l-.595 1.032z" stroke-width=".03072"/><path stroke="#2a64aa" d="M156.305 399.298h1.667l-.834 1.444z" stroke-width=".03072"/><path stroke="#3e74b7" d="M157.138 400.742h1.667l-.833 1.444z" stroke-width=".03072"/><path stroke="#386eb2" d="M156.305 402.186h1.667l-.834 1.443z" stroke-width=".03072"/><path stroke="#3c6eb3" d="M157.138 403.63h1.667l-.833 1.443z" stroke-width=".03072"/><path stroke="#2d65aa" d="M156.305 405.073h1.667l-.834 1.444z" stroke-width=".03072"/><path stroke="#2e68ad" d="M157.138 406.517h1.667l-.833 1.443z" stroke-width=".03072"/><path stroke="#508cc9" d="M156.305 407.96h1.667l-.834 1.444z" stroke-width=".03072"/><path d="M157.138 420.232"/><path stroke="#f6b135" stroke-opacity=".76" d="M157.335 421.123h1.274l-.638 1.104z" stroke-width=".03072"/><path d="M158.805 381.252"/><path stroke="#d84439" d="M157.138 383.418h1.667l-.833-1.444z" stroke-width=".03072"/><path stroke="#c93b33" d="M157.972 384.86h1.667l-.835-1.442z" stroke-width=".03072"/><path stroke="#d23e31" d="M157.138 386.305h1.667l-.833-1.444z" stroke-width=".03072"/><path stroke="#d74234" d="M157.972 387.75h1.667l-.835-1.445z" stroke-width=".03072"/><path stroke="#db4231" d="M157.138 389.193h1.667l-.833-1.444z" stroke-width=".03072"/><path stroke="#dd4332" d="M157.972 390.636h1.667l-.835-1.443z" stroke-width=".03072"/><path stroke="#c0352e" d="M157.138 392.08h1.667l-.833-1.444z" stroke-width=".03072"/><path stroke="#b8302b" d="M157.972 393.524h1.667l-.835-1.444z" stroke-width=".03072"/><path stroke="#e14635" d="M157.138 394.967h1.667l-.833-1.443zM157.972 396.41h1.667l-.835-1.443z" stroke-width=".03072"/><path d="M158.805 398.576"/><path stroke="#4370b3" d="M157.138 400.742h1.667l-.833-1.444z" stroke-width=".03072"/><path stroke="#4370b3" d="M157.972 402.186h1.667l-.835-1.444z" stroke-width=".03072"/><path stroke="#4a77b9" d="M157.138 403.63h1.667l-.833-1.444z" stroke-width=".03072"/><path stroke="#3c76b8" d="M157.972 405.073h1.667l-.835-1.444z" stroke-width=".03072"/><path stroke="#2f65ac" d="M157.138 406.517h1.667l-.833-1.444z" stroke-width=".03072"/><path d="M158.805 418.788"/><path stroke="#f69a2a" stroke-opacity=".52" d="M157.54 420.605h.863l-.43-.747z" stroke-width=".03072"/><path d="M159.64 369.703"/><path stroke="#af2727" stroke-opacity=".95" d="M158.01 370.46h1.59l-.795 1.374z" stroke-width=".03072"/><path d="M159.64 384.14"/><path stroke="#d84439" d="M157.972 384.86h1.667l-.835 1.445zM158.805 386.305h1.667l-.833 1.444z" stroke-width=".03072"/><path stroke="#e24633" d="M157.972 387.75h1.667l-.835 1.443z" stroke-width=".03072"/><path stroke="#d94132" d="M158.805 389.193h1.667l-.833 1.443z" stroke-width=".03072"/><path stroke="#dc4331" d="M157.972 390.636h1.667l-.835 1.444z" stroke-width=".03072"/><path stroke="#de4332" d="M158.805 392.08h1.667l-.833 1.444z" stroke-width=".03072"/><path stroke="#bb332d" d="M157.972 393.524h1.667l-.835 1.443z" stroke-width=".03072"/><path stroke="#e54834" d="M158.805 394.967h1.667l-.833 1.444z" stroke-width=".03072"/><path stroke="#cb3b31" d="M157.972 396.41h1.667l-.835 1.445z" stroke-width=".03072"/><path stroke="#e24838" d="M158.805 397.855h1.667l-.833 1.443z" stroke-width=".03072"/><path stroke="#5d83c2" stroke-opacity=".47" d="M158.416 399.683h.78l-.39.674z" stroke-width=".03072"/><path d="M159.64 401.464"/><path stroke="#3e79ba" d="M157.972 402.186h1.667l-.835 1.443z" stroke-width=".03072"/><path stroke="#457ebe" d="M158.805 403.63h1.667l-.833 1.443z" stroke-width=".03072"/><path stroke="#518fcb" d="M157.972 405.073h1.667l-.835 1.444z" stroke-width=".03072"/><path d="M159.64 407.24"/><path stroke="#47abe0" stroke-opacity=".86" d="M158.086 408.06h1.438l-.72 1.245z" stroke-width=".03072"/><path d="M159.64 415.9"/><path stroke="#f7c841" stroke-opacity=".52" d="M158.374 416.97h.863l-.432.748z" stroke-width=".03072"/><path d="M160.472 384.14"/><path stroke="#d84439" d="M158.805 386.305h1.667l-.833-1.444z" stroke-width=".03072"/><path stroke="#da483d" d="M159.64 387.75h1.666l-.834-1.445z" stroke-width=".03072"/><path stroke="#e14533" d="M158.805 389.193h1.667l-.833-1.444z" stroke-width=".03072"/><path stroke="#cb3e35" d="M159.64 390.636h1.666l-.834-1.443z" stroke-width=".03072"/><path stroke="#e74834" d="M158.805 392.08h1.667l-.833-1.444z" stroke-width=".03072"/><path stroke="#d23e31" d="M159.64 393.524h1.666l-.834-1.444z" stroke-width=".03072"/><path stroke="#cf3d30" d="M158.805 394.967h1.667l-.833-1.443z" stroke-width=".03072"/><path stroke="#e04533" d="M159.64 396.41h1.666l-.834-1.443z" stroke-width=".03072"/><path stroke="#da4232" d="M158.805 397.855h1.667l-.833-1.444z" stroke-width=".03072"/><path stroke="#e14737" d="M159.64 399.298h1.666l-.834-1.443z" stroke-width=".03072"/><path stroke="#5d83c2" stroke-opacity=".47" d="M159.25 400.357h.778l-.39-.674z" stroke-width=".03072"/><path d="M160.472 401.464"/><path stroke="#3b7fbe" d="M158.805 403.63h1.667l-.833-1.444z" stroke-width=".03072"/><path d="M161.306 387.027"/><path stroke="#e2493a" d="M159.64 387.75h1.666l-.834 1.443z" stroke-width=".03072"/><path stroke="#c0352d" d="M160.472 389.193h1.667l-.834 1.443z" stroke-width=".03072"/><path stroke="#d94335" d="M159.64 390.636h1.666l-.834 1.444z" stroke-width=".03072"/><path stroke="#cf3c2f" d="M160.472 392.08h1.667l-.834 1.444z" stroke-width=".03072"/><path stroke="#c2352d" d="M159.64 393.524h1.666l-.834 1.443z" stroke-width=".03072"/><path stroke="#df4535" d="M160.472 394.967h1.667l-.834 1.444z" stroke-width=".03072"/><path stroke="#dd4332" d="M159.64 396.41h1.666l-.834 1.445z" stroke-width=".03072"/><path stroke="#c93b33" d="M160.472 397.855h1.667l-.834 1.443z" stroke-width=".03072"/><path stroke="#d23e31" d="M159.64 399.298h1.666l-.834 1.444z" stroke-width=".03072"/><path stroke="#e24837" d="M160.472 400.742h1.667l-.834 1.444z" stroke-width=".03072"/><path d="M160.472 408.682"/><path stroke="#1c549e" stroke-opacity=".64" d="M160.776 409.667h1.06l-.53.918z" stroke-width=".03072"/><path d="M161.306 376.92"/><path stroke="#b02828" stroke-opacity=".71" d="M161.545 378.88h1.19l-.596-1.03z" stroke-width=".03072"/><path d="M162.14 381.252"/><path stroke="#af2727" stroke-opacity=".95" d="M160.512 383.384h1.588l-.794-1.376z" stroke-width=".03072"/><path d="M162.14 387.027"/><path stroke="#c93a31" d="M160.472 389.193h1.667l-.834-1.444z" stroke-width=".03072"/><path stroke="#c0352e" d="M161.306 390.636h1.667l-.834-1.443z" stroke-width=".03072"/><path stroke="#d74132" d="M160.472 392.08h1.667l-.834-1.444z" stroke-width=".03072"/><path stroke="#da4231" d="M161.306 393.524h1.667l-.834-1.444z" stroke-width=".03072"/><path stroke="#d23e31" d="M160.472 394.967h1.667l-.834-1.443z" stroke-width=".03072"/><path stroke="#df4434" d="M161.306 396.41h1.667l-.834-1.443z" stroke-width=".03072"/><path stroke="#ca3b30" d="M160.472 397.855h1.667l-.834-1.444z" stroke-width=".03072"/><path stroke="#c6382e" d="M161.306 399.298h1.667l-.834-1.443z" stroke-width=".03072"/><path stroke="#be342c" d="M160.472 400.742h1.667l-.834-1.444z" stroke-width=".03072"/><path d="M161.306 408.682"/><path stroke="#1c549e" stroke-opacity=".29" d="M161.9 410.333h.478l-.24-.414z" stroke-width=".03072"/><path stroke="#5c83c2" stroke-opacity=".86" d="M160.587 412.192h1.438l-.72-1.245z" stroke-width=".03072"/><path d="M162.973 381.252"/><path stroke="#d13b2f" stroke-opacity=".71" d="M161.545 382.18h1.19l-.596 1.03z" stroke-width=".03072"/><path d="M162.973 389.914"/><path stroke="#d23e30" d="M161.306 390.636h1.667l-.834 1.444z" stroke-width=".03072"/><path stroke="#cb3e35" d="M162.14 392.08h1.667l-.834 1.444z" stroke-width=".03072"/><path stroke="#cd3b2f" d="M161.306 393.524h1.667l-.834 1.443z" stroke-width=".03072"/><path stroke="#c0352d" d="M162.14 394.967h1.667l-.834 1.444z" stroke-width=".03072"/><path stroke="#d74234" d="M161.306 396.41h1.667l-.834 1.445z" stroke-width=".03072"/><path stroke="#c1362e" d="M162.14 397.855h1.667l-.834 1.443z" stroke-width=".03072"/><path stroke="#c6382e" d="M161.306 399.298h1.667l-.834 1.444z" stroke-width=".03072"/><path d="M162.973 401.464"/><path stroke="#f34d36" stroke-opacity=".99" d="M161.316 402.194h1.647l-.824 1.427z" stroke-width=".03072"/><path d="M162.973 421.675"/><path stroke="#f7c841" stroke-opacity=".52" d="M161.708 422.746h.863l-.43.747z" stroke-width=".03072"/><path d="M162.973 385.583"/><path stroke="#b02828" stroke-opacity=".47" d="M163.417 387.364h.778l-.388-.674z" stroke-width=".03072"/><path d="M163.807 389.914"/><path stroke="#d74234" d="M162.14 392.08h1.667l-.834-1.444z" stroke-width=".03072"/><path stroke="#c23830" d="M162.973 393.524h1.667l-.833-1.444z" stroke-width=".03072"/><path stroke="#c1362e" d="M162.14 394.967h1.667l-.834-1.443z" stroke-width=".03072"/><path stroke="#da4336" d="M162.973 396.41h1.667l-.833-1.443z" stroke-width=".03072"/><path stroke="#bb332c" d="M162.14 397.855h1.667l-.834-1.444z" stroke-width=".03072"/><path d="M163.807 401.464"/><path stroke="#d13a2f" stroke-opacity=".71" d="M162.378 403.423h1.19l-.595-1.03z" stroke-width=".03072"/><path d="M163.807 385.583"/><path stroke="#d33b2f" stroke-opacity=".92" d="M163.875 386.365h1.53l-.765 1.324z" stroke-width=".03072"/><path d="M164.64 392.802"/><path stroke="#cb3e35" d="M162.973 393.524h1.667l-.833 1.443z" stroke-width=".03072"/><path stroke="#db4538" d="M163.807 394.967h1.667l-.834 1.444z" stroke-width=".03072"/><path stroke="#db463a" d="M162.973 396.41h1.667l-.833 1.445z" stroke-width=".03072"/><path d="M164.64 407.24"/><path stroke="#2e60a8" stroke-opacity=".86" d="M163.087 408.06h1.44l-.72 1.245z" stroke-width=".03072"/><path d="M164.64 410.126"/><path stroke="#4975b7" stroke-opacity=".86" d="M163.087 410.947h1.44l-.72 1.245z" stroke-width=".03072"/><path d="M164.64 388.47"/><path stroke="#af2727" stroke-opacity=".85" d="M164.767 390.526h1.412l-.706-1.223z" stroke-width=".03072"/><path d="M165.474 392.802"/><path stroke="#c23830" d="M163.807 394.967h1.667l-.834-1.443z" stroke-width=".03072"/><path d="M164.64 397.133"/><path stroke="#d13b2f" stroke-opacity=".71" d="M164.88 399.092h1.188l-.594-1.03z" stroke-width=".03072"/><path d="M166.307 378.365"/><path stroke="#f34e37" stroke-opacity=".71" d="M164.88 379.293h1.188l-.594 1.03z" stroke-width=".03072"/><path d="M166.307 398.576"/><path stroke="#f34e37" stroke-opacity=".71" d="M164.88 399.505h1.188l-.594 1.03z" stroke-width=".03072"/><path d="M166.307 388.47"/><path stroke="#f34e37" stroke-opacity=".47" d="M166.75 390.25h.78l-.39-.673z" stroke-width=".03072"/><path d="M166.307 397.133"/><path stroke="#e04332" stroke-opacity=".85" d="M166.434 399.188h1.412l-.705-1.223z" stroke-width=".03072"/><path d="M167.14 397.133"/><path stroke="#b02828" stroke-opacity=".47" d="M167.585 398.24h.778l-.39.673z" stroke-width=".03072"/><path d="M167.14 400.02"/><path stroke="#b02828" stroke-opacity=".71" d="M167.38 400.95h1.19l-.596 1.03z" stroke-width=".03072"/><path d="M167.14 402.908"/><path stroke="#5c83c2" stroke-opacity=".97" d="M167.167 403.652h1.614l-.806 1.398z" stroke-width=".03072"/><path d="M168.808 401.464"/><path stroke="#f34e37" stroke-opacity=".71" d="M167.38 403.423h1.19l-.596-1.03z" stroke-width=".03072"/><path stroke="#4471b4" stroke-opacity=".64" d="M168.278 404.81h1.06l-.53-.917z" stroke-width=".03072"/><path d="M168.808 388.47"/><path stroke="#b02828" stroke-opacity=".47" d="M169.252 389.577h.778l-.39.674z" stroke-width=".03072"/><path d="M168.808 391.358"/><path stroke="#d13a2f" stroke-opacity=".71" d="M169.046 392.287h1.19l-.595 1.03z" stroke-width=".03072"/><path stroke="#f34e37" stroke-opacity=".71" d="M168.213 393.73h1.19l-.595 1.03z" stroke-width=".03072"/><path d="M169.64 388.47"/><path stroke="#af2727" stroke-opacity=".92" d="M169.71 390.577h1.53l-.765-1.325z" stroke-width=".03072"/><path d="M170.475 388.47"/><path stroke="#f34d36" stroke-opacity=".85" d="M170.602 389.303h1.412l-.706 1.223z" stroke-width=".03072"/><path d="M172.142 395.69"/><path stroke="#b02828" stroke-opacity=".71" d="M170.713 397.648h1.19l-.595-1.03z" stroke-width=".03072"/><path d="M128.564 374.89l-.6 1.038v.27l.835-1.442M128.2 376.064h1.197l.235.135h-1.667"/><path d="M129.397 376.064l-.598-1.036v-.272l.832 1.443M129.034 423.977h1.197l.236-.136H128.8M129.632 422.67l-.598 1.035-.235.136.832-1.443"/><path d="M129.034 423.705h1.197l.236.136H128.8M131.064 416.758l-.598 1.036v.272l.833-1.443"/><path d="M130.466 423.57l-.598-1.037-.236-.136.834 1.444M131.3 416.894l-.6 1.036-.234.136.833-1.443"/><path d="M130.7 417.93h1.198l.235.136h-1.667"/><path d="M131.898 417.93l-.6-1.036v-.27l.835 1.442"/><path d="M132.133 417.794l-.598-1.036-.236-.135.833 1.443M137.732 387.885l-.598 1.036v.273l.834-1.444M137.37 389.328h1.196l.235-.135h-1.666"/><path d="M137.968 388.02l-.6 1.037-.234.136.834-1.444M138.566 389.057l-.598-1.036v-.27l.833 1.443M145.47 427l-.6 1.036-.234.136.833-1.444"/><path d="M144.87 428.036h1.197l.236.136h-1.667"/><path d="M146.067 428.036L145.47 427v-.272l.833 1.444"/><path d="M146.303 427.9l-.598-1.036-.236-.136.833 1.444M151.54 425.15h1.195l.236.135h-1.666M152.137 426.456l-.598-1.036-.236-.135.833 1.443M152.735 425.42l-.598 1.036v.272l.834-1.443"/><path d="M152.97 425.556l-.597 1.037-.236.135.834-1.443M157.972 382.246l-.598 1.036-.236.136.834-1.444"/><path d="M157.374 383.282h1.196l.235.136h-1.667"/><path d="M158.57 383.282l-.598-1.036v-.272l.833 1.444M158.805 412.563l-.598 1.036-.235.135.833-1.444M158.207 413.6h1.197l.235.135h-1.668"/><path d="M158.805 383.146l-.598-1.036-.235-.136.833 1.444M159.64 413.463l-.6-1.036-.235-.136.834 1.445"/><path d="M158.207 413.87h1.197l.235-.135h-1.668M165.238 403.765l-.598 1.036v.273l.834-1.444"/><path d="M164.875 404.937h1.197l.235.136h-1.667"/><path d="M166.072 404.937l-.598-1.036v-.27l.833 1.443"/></g><text x="298.12" y="412.057" font-weight="600" font-size="46" font-family="Open Sans" letter-spacing="-2" fill="#757575">Managua</text><g fill="#757575"><path d="M193.832 393.2h14.084v17.605c-3.826 1.312-8.025 1.963-12.617 1.963-5.027 0-8.914-1.457-11.664-4.373-2.75-2.916-4.117-7.084-4.117-12.492 0-5.264 1.498-9.36 4.51-12.295 3.007-2.938 7.217-4.385 12.636-4.385 2.057 0 3.99.186 5.81.578 1.833.384 3.425.87 4.78 1.46l-2.804 6.918c-2.348-1.16-4.932-1.738-7.746-1.738-2.564 0-4.56.848-5.966 2.514-1.417 1.676-2.11 4.062-2.11 7.178 0 3.05.63 5.377 1.914 6.98 1.26 1.603 3.09 2.39 5.49 2.39 1.314 0 2.523-.115 3.62-.375v-5.107h-5.82v-6.82zM231.286 395.623c0-3-.59-5.213-1.768-6.66-1.18-1.438-2.99-2.162-5.397-2.162h-2.564v18.286h1.966c2.688 0 4.652-.777 5.894-2.338 1.25-1.54 1.87-3.93 1.87-7.125m9.152-.31c0 5.438-1.488 9.638-4.497 12.585-2.988 2.947-7.206 4.416-12.636 4.416h-10.558v-32.64h11.292c5.23 0 9.276 1.347 12.13 4.024 2.853 2.67 4.27 6.548 4.27 11.614M257.563 393.2h14.096v17.605c-3.828 1.312-8.036 1.963-12.617 1.963-5.026 0-8.915-1.457-11.666-4.373-2.74-2.916-4.114-7.084-4.114-12.492 0-5.264 1.498-9.36 4.507-12.295 3-2.938 7.218-4.385 12.638-4.385 2.048 0 3.992.186 5.822.578 1.81.384 3.403.87 4.756 1.46l-2.79 6.918c-2.348-1.16-4.935-1.738-7.746-1.738-2.576 0-4.56.848-5.977 2.514-1.397 1.676-2.1 4.062-2.1 7.178 0 3.05.63 5.377 1.9 6.98 1.273 1.603 3.104 2.39 5.502 2.39 1.313 0 2.525-.115 3.62-.375v-5.107h-5.832v-6.82z"/></g></g></svg>