<?xml version="1.0" encoding="UTF-8" standalone="no"?>
<svg
   xmlns:dc="http://purl.org/dc/elements/1.1/"
   xmlns:cc="http://creativecommons.org/ns#"
   xmlns:rdf="http://www.w3.org/1999/02/22-rdf-syntax-ns#"
   xmlns:svg="http://www.w3.org/2000/svg"
   xmlns="http://www.w3.org/2000/svg"
   xmlns:sodipodi="http://sodipodi.sourceforge.net/DTD/sodipodi-0.dtd"
   xmlns:inkscape="http://www.inkscape.org/namespaces/inkscape"
   id="Layer_1"
   viewBox="428.2 1882.7 611.9 200"
   version="1.1"
   inkscape:version="0.91 r13725"
   sodipodi:docname="logo-white1.svg">
  <metadata
     id="metadata23">
    <rdf:RDF>
      <cc:Work
         rdf:about="">
        <dc:format>image/svg+xml</dc:format>
        <dc:type
           rdf:resource="http://purl.org/dc/dcmitype/StillImage" />
        <dc:title></dc:title>
      </cc:Work>
    </rdf:RDF>
  </metadata>
  <defs
     id="defs21" />
  <sodipodi:namedview
     pagecolor="#ffffff"
     bordercolor="#666666"
     borderopacity="1"
     objecttolerance="10"
     gridtolerance="10"
     guidetolerance="10"
     inkscape:pageopacity="0"
     inkscape:pageshadow="2"
     inkscape:window-width="1920"
     inkscape:window-height="881"
     id="namedview19"
     showgrid="false"
     inkscape:zoom="1.5253815"
     inkscape:cx="309.6585"
     inkscape:cy="47.554102"
     inkscape:window-x="0"
     inkscape:window-y="27"
     inkscape:window-maximized="1"
     inkscape:current-layer="Layer_1" />
  <style
     id="style3">.st0{fill:#FFFFFF;}</style>
  <g
     id="g7"
     style="fill:#ffffff">
    <path
       class="st0"
       d="M814.2 1942.7c0 8.9-2.4 15.8-7.3 20.6-4.9 4.8-11.7 7.2-20.6 7.2h-17.2V1917h18.4c8.5 0 15.1 2.2 19.7 6.6 4.7 4.5 7 10.8 7 19.1zm-14.9.5c0-4.9-1-8.5-2.9-10.9-1.9-2.4-4.8-3.5-8.8-3.5h-4.2v29.9h3.2c4.4 0 7.6-1.3 9.6-3.8 2.1-2.6 3.1-6.5 3.1-11.7zM838.3 1971.2c-6.9 0-12.2-1.8-16-5.5s-5.7-8.9-5.7-15.7c0-7 1.8-12.4 5.3-16.1s8.5-5.6 15-5.6c6.2 0 11 1.6 14.4 4.9s5.1 7.9 5.1 14.1v6.4H831c.1 2.3.9 4.1 2.5 5.4 1.6 1.3 3.7 2 6.5 2 2.5 0 4.8-.2 6.9-.7s4.4-1.3 6.8-2.4v10.3c-2.2 1.2-4.5 1.9-6.9 2.4-2.4.4-5.2.5-8.5.5zm-.8-33c-1.7 0-3.1.5-4.2 1.6s-1.8 2.7-2 5h12.2c-.1-2-.6-3.6-1.7-4.8-1.1-1.2-2.5-1.8-4.3-1.8zM870.7 1970.6l-15.7-41.4h14.8l7 24.5c0 .1.1.3.2.6s.1.6.2 1 .1.8.2 1.3.1.9.1 1.3h.2c0-1.3.2-2.6.7-4.1l7.3-24.6h14.8l-15.7 41.4h-14.1zM915.8 1970.6h-14.1v-53.4h31.4v11.6h-17.3v10.2h15.9v11.6h-15.9v20zM956.3 1971.2c-6.8 0-12.1-1.8-16-5.5-3.8-3.7-5.7-8.9-5.7-15.7 0-7 1.8-12.4 5.3-16.1s8.5-5.6 15-5.6c6.2 0 11 1.6 14.4 4.9s5.1 7.9 5.1 14.1v6.4H949c.1 2.3.9 4.1 2.5 5.4s3.7 2 6.5 2c2.5 0 4.8-.2 6.9-.7 2.1-.5 4.3-1.3 6.8-2.4v10.3c-2.2 1.2-4.5 1.9-6.9 2.4-2.4.4-5.2.5-8.5.5zm-.8-33c-1.7 0-3.1.5-4.2 1.6s-1.8 2.7-2 5h12.2c-.1-2-.6-3.6-1.7-4.8-1.1-1.2-2.5-1.8-4.3-1.8zM1009.7 1957.8c0 4.4-1.5 7.8-4.5 10.1s-7.3 3.4-12.9 3.4c-3 0-5.7-.2-7.9-.5-2.3-.3-4.5-.9-6.9-1.8v-11.4c2.2 1 4.6 1.8 7.2 2.4 2.6.6 5 .9 7 .9 3.1 0 4.6-.7 4.6-2.1 0-.7-.4-1.4-1.3-2-.9-.6-3.4-1.7-7.5-3.3-3.8-1.6-6.4-3.3-7.9-5.3s-2.3-4.5-2.3-7.5c0-3.8 1.5-6.8 4.4-9s7.1-3.2 12.5-3.2c2.7 0 5.3.3 7.6.9 2.4.6 4.8 1.5 7.4 2.6l-3.8 9.2c-1.9-.8-3.9-1.6-6-2.2s-3.8-.9-5.1-.9c-2.3 0-3.5.6-3.5 1.7 0 .7.4 1.3 1.2 1.8s3.2 1.5 7 3.1c2.9 1.2 5 2.4 6.4 3.5s2.5 2.5 3.1 4c.8 1.6 1.2 3.5 1.2 5.6zM1033.2 1959.9c1.9 0 4.2-.5 6.9-1.4v10.4c-1.9.8-3.7 1.4-5.5 1.8-1.7.4-3.8.5-6.1.5-4.8 0-8.2-1.2-10.3-3.5-2.1-2.4-3.2-6-3.2-10.8v-17.1h-5v-5.8l6.3-4.5 3.7-8.7h9.3v8.3h10.1v10.7h-10.1v16.1c.1 2.8 1.4 4 3.9 4z"
       id="path9"
       style="fill:#ffffff" />
  </g>
  <g
     id="g11"
     style="fill:#ffffff">
    <path
       class="st0"
       d="M613.1 1940.6h23.1v28.8c-6.3 2.1-13.2 3.2-20.7 3.2-8.2 0-14.6-2.4-19.1-7.2-4.5-4.8-6.7-11.6-6.7-20.4 0-8.6 2.5-15.3 7.4-20.1 4.9-4.8 11.8-7.2 20.7-7.2 3.4 0 6.5.3 9.5 1 3 .6 5.6 1.4 7.8 2.4l-4.6 11.3c-3.8-1.9-8.1-2.8-12.7-2.8-4.2 0-7.5 1.4-9.8 4.1s-3.5 6.7-3.5 11.8c0 5 1 8.8 3.1 11.4 2.1 2.6 5.1 3.9 9 3.9 2.1 0 4.1-.2 5.9-.6v-8.4H613l.1-11.2zM687.9 1943.9c0 8.9-2.5 15.8-7.4 20.6-4.9 4.8-11.8 7.2-20.7 7.2h-17.3v-53.5H661c8.6 0 15.2 2.2 19.9 6.6 4.7 4.5 7 10.9 7 19.1zm-15 .5c0-4.9-1-8.5-2.9-10.9-1.9-2.4-4.9-3.6-8.8-3.6H657v29.9h3.2c4.4 0 7.6-1.3 9.7-3.8 2-2.3 3-6.2 3-11.6zM714.5 1940.6h23.1v28.8c-6.3 2.1-13.1 3.2-20.7 3.2-8.2 0-14.6-2.4-19.1-7.2-4.5-4.8-6.7-11.6-6.7-20.4 0-8.6 2.5-15.3 7.4-20.1 4.9-4.8 11.8-7.2 20.7-7.2 3.4 0 6.5.3 9.5 1 3 .6 5.6 1.4 7.8 2.4l-4.6 11.3c-3.9-1.9-8.1-2.8-12.7-2.8-4.2 0-7.5 1.4-9.8 4.1s-3.5 6.7-3.5 11.8c0 5 1 8.8 3.1 11.4 2.1 2.6 5.1 3.9 9 3.9 2.1 0 4.1-.2 5.9-.6v-8.4h-9.5l.1-11.2z"
       id="path13"
       style="fill:#ffffff" />
  </g>
  <g
     id="g15"
     style="fill:#ffffff">
    <path
       class="st0"
       d="M533.8 2009.1l-79-126.4H433c-4.4 0-6 3-3.8 6.7l53 86.5.3.4 35.9 57.5 15.4-24.7zM546 1989.4c2.3-3.7 2.3-9.7 0-13.4l-53.6-86.6c-2.3-3.7-7.7-6.7-12-6.7h-22l77.2 123.5 10.4-16.8zM501.1 2011.9l-44.2 70.8h23.5c4.3 0 9.8-3 12-6.7l21.4-34.6c.1-.1.2-.4.6-1l2.2-3.6-15.5-24.9zM482.3 1989.4l-53 86.5c-2.3 3.7-.6 6.7 3.8 6.7h20.3l46-73.6-15.4-24.8c-.3 1.9-.9 3.7-1.7 5.2z"
       id="path17"
       style="fill:#ffffff" />
  </g>
  <text
     id="title"
     style="font-weight:600;font-size:66.90700531px;font-family:'Open Sans';letter-spacing:-2.90900016;fill:#ffffff;"
     editable="simple"
     x="635.39478"
     y="2040.8772">Nicaragua</text>
</svg>
