<?xml version="1.0" encoding="UTF-8" standalone="no"?>
<!-- Generator: Adobe Illustrator 18.0.0, SVG Export Plug-In . SVG Version: 6.00 Build 0)  -->

<svg
   xmlns:dc="http://purl.org/dc/elements/1.1/"
   xmlns:cc="http://creativecommons.org/ns#"
   xmlns:rdf="http://www.w3.org/1999/02/22-rdf-syntax-ns#"
   xmlns:svg="http://www.w3.org/2000/svg"
   xmlns="http://www.w3.org/2000/svg"
   xmlns:sodipodi="http://sodipodi.sourceforge.net/DTD/sodipodi-0.dtd"
   xmlns:inkscape="http://www.inkscape.org/namespaces/inkscape"
   version="1.1"
   id="Layer_1"
   x="0px"
   y="0px"
   viewBox="0 0 247.97876 247.97875"
   enable-background="new 0 0 612 792"
   xml:space="preserve"
   inkscape:version="0.91 r13725"
   sodipodi:docname="codeminery-logo-01.svg"
   width="247.97876"
   height="247.97876"><metadata
     id="metadata47"><rdf:RDF><cc:Work
         rdf:about=""><dc:format>image/svg+xml</dc:format><dc:type
           rdf:resource="http://purl.org/dc/dcmitype/StillImage" /><dc:title></dc:title></cc:Work></rdf:RDF></metadata><defs
     id="defs45" /><sodipodi:namedview
     pagecolor="#ffffff"
     bordercolor="#666666"
     borderopacity="1"
     objecttolerance="10"
     gridtolerance="10"
     guidetolerance="10"
     inkscape:pageopacity="0"
     inkscape:pageshadow="2"
     inkscape:window-width="1920"
     inkscape:window-height="881"
     id="namedview43"
     showgrid="false"
     fit-margin-top="0"
     fit-margin-left="0"
     fit-margin-right="0"
     fit-margin-bottom="0"
     inkscape:zoom="1.6856283"
     inkscape:cx="237.52527"
     inkscape:cy="92.598589"
     inkscape:window-x="0"
     inkscape:window-y="27"
     inkscape:window-maximized="1"
     inkscape:current-layer="Layer_1" /><g
     id="g3"
     transform="matrix(2.2701839,0,0,2.2701839,-570.68689,-775.00345)"><g
       id="g5"><g
         id="g7"><path
           d="m 265,435.2 c -0.9,0.3 -1.9,0.4 -2.9,0.4 -3.7,0 -5.5,-1.8 -5.5,-5.5 0,-3.4 1.8,-5.2 5.5,-5.2 1,0 2,0.1 2.9,0.4 l 0,1.2 c -0.9,-0.3 -1.8,-0.5 -2.8,-0.5 -2.9,0 -4.3,1.4 -4.3,4.1 0,2.9 1.4,4.4 4.3,4.4 1,0 1.9,-0.2 2.8,-0.5 l 0,1.2 z"
           id="path9"
           inkscape:connector-curvature="0"
           style="fill:#705683" /><path
           d="m 266.9,430.4 c 0,-3.5 1.8,-5.3 5.3,-5.3 3.5,0 5.2,1.8 5.2,5.3 0,3.5 -1.7,5.3 -5.2,5.3 -3.6,0 -5.3,-1.8 -5.3,-5.3 z m 5.2,4.2 c 2.5,0 3.8,-1.4 3.8,-4.2 0,-2.8 -1.2,-4.2 -3.8,-4.2 -2.6,0 -3.8,1.4 -3.8,4.2 0,2.8 1.3,4.2 3.8,4.2 z"
           id="path11"
           inkscape:connector-curvature="0"
           style="fill:#705683" /><path
           d="m 279.4,435.6 0,-10.5 3.8,0 c 3.5,0 5.2,1.7 5.2,5 0,3.7 -1.7,5.5 -5.2,5.5 l -3.8,0 z m 3.9,-1.1 c 2.6,0 3.8,-1.5 3.8,-4.4 0,-2.6 -1.3,-3.9 -3.8,-3.9 l -2.5,0 0,8.3 2.5,0 z"
           id="path13"
           inkscape:connector-curvature="0"
           style="fill:#705683" /><path
           d="m 297.3,425.1 0,1.1 -5.5,0 0,3.5 5.2,0 0,1.1 -5.2,0 0,3.7 5.6,0 0,1.1 -7,0 0,-10.5 6.9,0 z"
           id="path15"
           inkscape:connector-curvature="0"
           style="fill:#705683" /></g><g
         id="g17"><polygon
           points="276.5,387.5 280.5,390.6 305.1,370.9 305.1,391.1 310,391.1 310,370.9 334.5,390.6 338.6,387.5 307.6,362.6 "
           id="polygon19"
           style="fill:#705683" /><polygon
           points="270.1,386.9 304.3,359.9 299.8,356.3 261.1,386.9 300.1,417.8 304.6,414.3 "
           id="polygon21"
           style="fill:#705683" /></g></g><g
       id="g23"><g
         id="g25"><path
           d="m 299.4,435.6 0,-10.5 1.7,0 3.8,8.7 3.8,-8.7 1.6,0 0,10.5 -1.2,0 0,-8.6 -3.7,8.6 -1.1,0 -3.8,-8.6 0,8.6 -1.1,0 z"
           id="path27"
           inkscape:connector-curvature="0"
           style="fill:#705683" /><path
           d="m 314.5,425.1 0,10.5 -1.4,0 0,-10.5 1.4,0 z"
           id="path29"
           inkscape:connector-curvature="0"
           style="fill:#705683" /><path
           d="m 317.2,435.6 0,-10.5 1.4,0 6.4,8.4 0,-8.4 1.3,0 0,10.5 -1.4,0 -6.4,-8.5 0,8.5 -1.3,0 z"
           id="path31"
           inkscape:connector-curvature="0"
           style="fill:#705683" /><path
           d="m 335.6,425.1 0,1.1 -5.5,0 0,3.5 5.2,0 0,1.1 -5.2,0 0,3.7 5.6,0 0,1.1 -7,0 0,-10.5 6.9,0 z"
           id="path33"
           inkscape:connector-curvature="0"
           style="fill:#705683" /><path
           d="m 337.8,435.6 0,-10.5 4.5,0 c 2,0 3,0.8 3,2.5 0,1.4 -1,2.4 -2.9,3 l 3.6,4.9 -1.8,0 -3.3,-4.7 0,-0.8 c 2,-0.3 3,-1.1 3,-2.3 0,-1 -0.6,-1.5 -1.7,-1.5 l -3,0 0,9.4 -1.4,0 z"
           id="path35"
           inkscape:connector-curvature="0"
           style="fill:#705683" /><path
           d="m 346.2,425.1 1.5,0 3,5.5 3.1,-5.5 1.6,0 -4,6.8 0,3.7 -1.4,0 0,-3.7 -3.8,-6.8 z"
           id="path37"
           inkscape:connector-curvature="0"
           style="fill:#705683" /></g><polygon
         points="345.6,386.9 311.4,359.9 315.9,356.3 354.6,386.9 315.6,417.8 311.1,414.3 "
         id="polygon39"
         style="fill:#705683" /></g><polygon
       points="307.6,394.4 299.4,394.4 295.2,397.8 299.3,401.2 307.6,408 315.8,401.2 319.9,397.8 315.7,394.4 "
       id="polygon41"
       style="fill:#c41f17" /></g><rect
     style="opacity:1;fill:none;fill-opacity:1;fill-rule:evenodd;stroke:none;stroke-width:1;stroke-miterlimit:4;stroke-dasharray:none;stroke-opacity:1"
     id="rect5907"
     width="247.97876"
     height="247.97876"
     x="0"
     y="-7.6293945e-06" /></svg>