<?xml version="1.0" encoding="UTF-8" standalone="no"?>
<!-- Created with Inkscape (http://www.inkscape.org/) -->

<svg
   xmlns:dc="http://purl.org/dc/elements/1.1/"
   xmlns:cc="http://creativecommons.org/ns#"
   xmlns:rdf="http://www.w3.org/1999/02/22-rdf-syntax-ns#"
   xmlns:svg="http://www.w3.org/2000/svg"
   xmlns="http://www.w3.org/2000/svg"
   xmlns:sodipodi="http://sodipodi.sourceforge.net/DTD/sodipodi-0.dtd"
   xmlns:inkscape="http://www.inkscape.org/namespaces/inkscape"
   width="110.00888mm"
   height="78.851547mm"
   viewBox="0 0 389.79527 279.39527"
   id="svg4370"
   version="1.1"
   inkscape:version="0.91 r13725"
   sodipodi:docname="kronoscode.svg">
  <defs
     id="defs4372" />
  <sodipodi:namedview
     id="base"
     pagecolor="#ffffff"
     bordercolor="#666666"
     borderopacity="1.0"
     inkscape:pageopacity="0.0"
     inkscape:pageshadow="2"
     inkscape:zoom="0.98994949"
     inkscape:cx="55.611907"
     inkscape:cy="197.24659"
     inkscape:document-units="px"
     inkscape:current-layer="layer1"
     showgrid="false"
     fit-margin-top="1.1"
     fit-margin-left="1.1"
     fit-margin-right="1.1"
     fit-margin-bottom="1.1"
     units="mm"
     inkscape:window-width="1920"
     inkscape:window-height="881"
     inkscape:window-x="0"
     inkscape:window-y="27"
     inkscape:window-maximized="1" />
  <metadata
     id="metadata4375">
    <rdf:RDF>
      <cc:Work
         rdf:about="">
        <dc:format>image/svg+xml</dc:format>
        <dc:type
           rdf:resource="http://purl.org/dc/dcmitype/StillImage" />
        <dc:title></dc:title>
      </cc:Work>
    </rdf:RDF>
  </metadata>
  <g
     inkscape:label="Layer 1"
     inkscape:groupmode="layer"
     id="layer1"
     transform="translate(137.75476,-66.950282)">
    <g
       transform="translate(-170.85714,-287.15208)"
       id="g155">
      <g
         id="g157">
        <g
           id="g159">
          <path
             inkscape:connector-curvature="0"
             d="m 299.2,600.8 c -0.9,-2.1 -2.2,-3.9 -3.7,-5.5 -3.3,-3.4 -7.8,-5.5 -12.9,-5.5 -5.1,0 -9.6,2.1 -12.9,5.5 -3.3,3.4 -5.3,8 -5.3,13.1 0,5.1 2.1,9.7 5.3,13.1 3.3,3.4 7.8,5.5 12.9,5.5 5.1,0 9.6,-2.1 12.9,-5.5 1.5,-1.6 2.8,-3.3 3.7,-5.4 l 0.9,0 c -0.9,2.3 -2.3,4.3 -4,6.1 -3.5,3.6 -8.2,5.7 -13.5,5.7 -5.3,0 -10,-2.2 -13.5,-5.7 -3.4,-3.5 -5.6,-8.4 -5.6,-13.8 0,-5.3 2.2,-10.2 5.6,-13.7 3.5,-3.6 8.2,-5.7 13.5,-5.7 5.3,0 10,2.2 13.5,5.7 1.7,1.7 3.1,3.8 4,6.1 l -0.9,0 z"
             id="path161" />
          <path
             inkscape:connector-curvature="0"
             d="m 282.7,629.1 c -5.4,0 -10.5,-2.2 -14.4,-6.1 -3.8,-3.9 -5.9,-9.1 -5.9,-14.6 0,-5.4 2.1,-10.6 5.9,-14.6 3.8,-3.9 8.9,-6.1 14.4,-6.1 5.4,0 10.5,2.2 14.4,6.1 1.8,1.9 3.3,4.1 4.3,6.5 l 0.7,1.7 -3.6,0 -0.3,-0.8 c -0.8,-1.8 -2,-3.6 -3.4,-5.1 -3.2,-3.3 -7.4,-5.1 -12,-5.1 -4.6,0 -8.8,1.8 -12,5.1 -3.2,3.3 -5,7.7 -5,12.2 0,4.6 1.8,8.9 5,12.2 3.2,3.3 7.5,5.1 12,5.1 4.5,0 8.8,-1.8 12,-5.1 1.5,-1.6 2.7,-3.3 3.4,-5 l 0.3,-0.8 3.6,0 -0.7,1.7 c -1,2.4 -2.4,4.6 -4.3,6.5 -3.8,4.1 -8.9,6.2 -14.4,6.2 z"
             id="path163" />
        </g>
        <g
           id="g165">
          <path
             inkscape:connector-curvature="0"
             d="m 313.2,594.2 c 3.6,-3.7 8.6,-5.9 14,-5.9 5.5,0 10.5,2.2 14.1,5.9 3.6,3.6 5.8,8.6 5.8,14.1 0,5.5 -2.3,10.5 -5.8,14.1 -3.6,3.7 -8.6,5.9 -14.1,5.9 -5.5,0 -10.5,-2.2 -14,-5.9 -3.6,-3.6 -5.8,-8.6 -5.8,-14.1 -0.1,-5.5 2.2,-10.5 5.8,-14.1 z m 27.5,0.7 c -3.5,-3.5 -8.2,-5.7 -13.5,-5.7 -5.2,0 -10,2.2 -13.4,5.7 -3.4,3.5 -5.6,8.2 -5.6,13.5 0,5.3 2.2,10 5.6,13.5 3.5,3.5 8.2,5.7 13.4,5.7 5.2,0 10,-2.2 13.5,-5.7 3.4,-3.4 5.5,-8.2 5.5,-13.5 0,-5.3 -2.1,-10.1 -5.5,-13.5 z"
             id="path167" />
          <path
             inkscape:connector-curvature="0"
             d="m 327.2,629.6 c -5.6,0 -11.1,-2.3 -14.9,-6.3 -4,-4.1 -6.2,-9.4 -6.2,-15 0,-5.6 2.2,-11 6.2,-15 3.9,-4 9.3,-6.3 14.9,-6.3 5.7,0 11,2.2 15,6.3 4,4.1 6.2,9.4 6.2,15 0,5.6 -2.2,11 -6.2,15 -4,4.1 -9.3,6.3 -15,6.3 z m 0,-39.2 c -4.7,0 -9.2,1.9 -12.5,5.3 -3.4,3.4 -5.2,7.9 -5.2,12.6 0,4.7 1.8,9.2 5.2,12.6 3.4,3.4 7.8,5.3 12.5,5.3 4.7,0 9.2,-1.9 12.6,-5.3 3.3,-3.4 5.2,-7.8 5.2,-12.6 0,-4.7 -1.8,-9.2 -5.2,-12.6 -3.4,-3.4 -7.9,-5.3 -12.6,-5.3 z"
             id="path169" />
        </g>
        <g
           id="g171">
          <path
             inkscape:connector-curvature="0"
             d="m 368.5,588.9 c 25.5,0 25.5,38.9 0,38.9 l -13.1,0 c 0,-13 0,-25.9 0,-38.9 l 13.1,0 z m 0,38.1 c 24.4,0 24.4,-37.2 0,-37.2 l -12.3,0 c 0,12.1 0,25.2 0,37.2 l 12.3,0 z"
             id="path173" />
          <path
             inkscape:connector-curvature="0"
             d="m 368.5,629.1 -14.4,0 0,-41.4 14.4,0 c 6.3,0 11.6,2.2 15.3,6.5 3.3,3.8 5.1,8.8 5.1,14.2 0,5.4 -1.8,10.4 -5.1,14.2 -3.7,4.2 -9,6.5 -15.3,6.5 z m -11.1,-3.4 11,0 c 5.3,0 9.7,-1.9 12.8,-5.4 2.8,-3.1 4.3,-7.4 4.3,-12 0,-8.4 -5.3,-17.4 -17.1,-17.4 l -11,0 0,34.8 z"
             id="path175" />
        </g>
        <g
           id="g177">
          <path
             inkscape:connector-curvature="0"
             d="m 397,627 20.7,0 0,0.8 -21.5,0 -0.1,0 0,-38.9 21.5,0 0,0.8 -20.6,0 0,18.1 20.1,0 0,0.9 -20.1,0 0,18.3 z"
             id="path179" />
          <polygon
             points="418.8,587.7 418.8,591 398.3,591 398.3,606.6 418.4,606.6 418.4,610 398.3,610 398.3,625.7 419,625.7 419,629.1 394.9,629.1 394.9,587.7 "
             id="polygon181" />
        </g>
      </g>
      <g
         id="g183">
        <path
           inkscape:connector-curvature="0"
           d="m 42.5,588.9 0,38.9 -5.5,0 0,-38.9 5.5,0 z m 1.1,18 13.6,-18 7.1,0 -14.9,19.3 16.4,19.6 -7.3,0 -14.9,-18 0,-2.9 z"
           id="path185" />
        <path
           inkscape:connector-curvature="0"
           d="m 76.6,608.1 6.6,0 c 4.7,0 7.1,-3.4 7.1,-6.8 0,-3.3 -2.3,-6.7 -7.1,-6.7 l -8.6,0 0,33.3 -5.6,0 0,-39 14.2,0 c 8.5,0 12.7,6.2 12.7,12.4 0,5.5 -3.4,10.7 -10.1,11.9 l 12.3,14.6 -7.3,0 -14.2,-17.1 0,-2.6 z"
           id="path187" />
        <path
           inkscape:connector-curvature="0"
           d="m 105.8,594.3 c 3.6,-3.6 8.6,-5.9 14,-5.9 5.5,0 10.5,2.3 14.1,5.9 3.5,3.6 5.8,8.6 5.8,14.1 0,5.5 -2.3,10.5 -5.8,14.1 -3.6,3.7 -8.6,5.9 -14.1,5.9 -5.5,0 -10.5,-2.2 -14,-5.9 -3.5,-3.6 -5.8,-8.6 -5.8,-14.1 0,-5.6 2.3,-10.5 5.8,-14.1 z m 24.1,4 c -2.6,-2.6 -6.2,-4.2 -10.1,-4.2 -3.8,0 -7.4,1.6 -10,4.2 -2.6,2.6 -4.2,6.1 -4.2,10.1 0,4 1.6,7.5 4.2,10.1 2.6,2.6 6.1,4.2 10,4.2 3.8,0 7.5,-1.6 10.1,-4.2 2.5,-2.6 4.1,-6.1 4.1,-10.1 0,-4.1 -1.6,-7.6 -4.1,-10.1 z"
           id="path189" />
        <path
           inkscape:connector-curvature="0"
           d="m 146,627.8 0,-39 4.3,0.1 19,27.4 0,-27.4 5.6,0 0,39 -4.5,0 -18.8,-27.2 0,27.2 -5.6,0 z"
           id="path191" />
        <path
           inkscape:connector-curvature="0"
           d="m 186.3,594.3 c 3.6,-3.6 8.6,-5.9 14,-5.9 5.5,0 10.5,2.3 14.1,5.9 3.5,3.6 5.8,8.6 5.8,14.1 0,5.5 -2.3,10.5 -5.8,14.1 -3.6,3.7 -8.6,5.9 -14.1,5.9 -5.5,0 -10.5,-2.2 -14,-5.9 -3.5,-3.6 -5.8,-8.6 -5.8,-14.1 0,-5.6 2.3,-10.5 5.8,-14.1 z m 24.1,4 c -2.6,-2.6 -6.2,-4.2 -10.1,-4.2 -3.8,0 -7.4,1.6 -10,4.2 -2.6,2.6 -4.2,6.1 -4.2,10.1 0,4 1.6,7.5 4.2,10.1 2.6,2.6 6.1,4.2 10,4.2 3.8,0 7.5,-1.6 10.1,-4.2 2.5,-2.6 4.1,-6.1 4.1,-10.1 0,-4.1 -1.6,-7.6 -4.1,-10.1 z"
           id="path193" />
        <path
           inkscape:connector-curvature="0"
           d="m 247.8,598.9 c -0.8,-3.5 -4.6,-5 -8,-5 -2.6,0.1 -5.5,0.9 -7.1,2.9 -0.8,1 -1.1,2.3 -0.9,3.6 0.3,4 4.7,4.5 8.8,4.9 5.3,0.7 12,2.1 13.5,8.3 0.2,0.8 0.3,1.8 0.3,2.6 0,7.5 -7.5,11.9 -14.5,11.9 -6,0 -13.3,-3.6 -14,-10.5 l -0.1,-1.1 5.7,-0.1 0.1,0.8 0,-0.2 c 0.4,3.6 4.8,5.5 8.4,5.5 4.2,0 8.7,-2.3 8.7,-6.3 0,-0.4 -0.1,-0.8 -0.2,-1.3 -0.7,-3 -4.7,-3.5 -8.6,-3.8 -6.1,-0.6 -13.2,-1.9 -13.8,-10.1 l 0,0.1 c -0.2,-2.6 0.4,-5.2 2.1,-7.4 2.6,-3.4 7.3,-5.2 11.8,-5.2 6,0 12.2,3.1 13.2,10.2 l -5.4,0.2 z"
           id="path195" />
      </g>
    </g>
    <g
       transform="translate(-170.85714,-287.15208)"
       id="g197">
      <polygon
         points="245.5,512 275.2,512 216.8,456.2 275.2,403 245.5,403 187.1,456.2 "
         id="polygon199" />
      <g
         id="g201">
        <path
           inkscape:connector-curvature="0"
           d="m 292.6,528.6 c -8.4,5.9 -18.6,9.4 -29.7,9.4 l -64,0 c -28.4,0 -51.5,-23 -51.5,-51.4 l 0,-64 c 0,-28.4 23.1,-51.6 51.5,-51.6 l 64,0 c 12.8,0 24.5,4.7 33.6,12.5 l 9.7,-8.8 C 294.8,364.3 279.6,358 263,358 l -64,0 c -35.6,0 -64.5,29 -64.5,64.6 l 0,64 c 0,35.6 28.9,64.4 64.5,64.4 l 64,0 c 14.7,0 28.3,-5 39.2,-13.3 l -9.6,-9.1 z"
           id="path203" />
      </g>
    </g>
  </g>
</svg>
